<svg width="1402" height="392" viewBox="0 0 1402 392" xmlns="http://www.w3.org/2000/svg" xmlns:xlink="http://www.w3.org/1999/xlink"><title>bg_1</title><defs><path d="M.95.53L.1 295.2l.28 12.85C119.98 392.9 388.48 452 700.5 452c312.52 0 581.36-59.3 700.68-144.35l-.05-12.45.22-234.07C1283.3 148.93 1013.7 210.3 700 210.3c-311.43 0-579.4-60.47-698.76-147.26L.94.54z" id="path-1"/><radialGradient fx="50%" fy="50%" r="13.97%" id="radialGradient-3"><stop stop-color="#522D46" offset="0%"/><stop stop-color="#18072F" offset="100%"/></radialGradient><path d="M.95.53H.1V295.2H.4l-.04 12.85C119.98 392.9 388.48 452 700.5 452c312.52 0 581.36-59.3 700.68-144.35l-.05-12.45h.8V.53h-.34l-.25 60.6C1283.3 148.93 1013.7 210.3 700 210.3c-311.43 0-579.4-60.47-698.76-147.26L.94.54z" id="path-4"/><path d="M.95.53H.1V295.2H.4l-.04 12.85C119.98 392.9 388.48 452 700.5 452c312.52 0 581.36-59.3 700.68-144.35l-.05-12.45h.8V.53h-.34l-.25 60.6C1283.3 148.93 1013.7 210.3 700 210.3c-311.43 0-579.4-60.47-698.76-147.26L.94.54z" id="path-6"/><linearGradient x1="0%" y1="50%" y2="50%" id="linearGradient-8"><stop stop-color="#00ACAF" offset="0%"/><stop stop-color="#00AEA6" offset="14.56%"/><stop stop-color="#46B48C" offset="42.3%"/><stop stop-color="#82BD57" offset="80%"/><stop stop-color="#9AC331" offset="100%"/></linearGradient><linearGradient x1="0%" y1="49.99%" y2="49.99%" id="linearGradient-9"><stop stop-color="#00ACAF" offset="0%"/><stop stop-color="#00AEA6" offset="14.56%"/><stop stop-color="#46B48C" offset="42.3%"/><stop stop-color="#82BD57" offset="80%"/><stop stop-color="#9AC331" offset="100%"/></linearGradient><linearGradient x1="0%" y1="50%" y2="50%" id="linearGradient-10"><stop stop-color="#522D46" offset="0%"/><stop stop-color="#4B2743" offset="15.93%"/><stop stop-color="#391B3B" offset="46.28%"/><stop stop-color="#1F0B32" offset="87.55%"/><stop stop-color="#18072F" offset="100%"/></linearGradient><linearGradient x1="0%" y1="50%" y2="50%" id="linearGradient-11"><stop stop-color="#A0D0AA" offset="0%"/><stop stop-color="#94C0A5" offset="9.3%"/><stop stop-color="#769A95" offset="27.02%"/><stop stop-color="#4E6376" offset="51.32%"/><stop stop-color="#29274A" offset="80.94%"/><stop stop-color="#18072F" offset="100%"/></linearGradient><linearGradient x1="50%" y1="100%" x2="50%" y2="0%" id="linearGradient-12"><stop stop-color="#00ACAF" offset="0%"/><stop stop-color="#C5D97F" offset="100%"/></linearGradient><linearGradient x1="50%" y1="378.59%" x2="50%" y2="0%" id="linearGradient-13"><stop stop-color="#00ACAF" offset="0%"/><stop stop-color="#C5D97F" offset="100%"/></linearGradient><linearGradient x1="50%" y1="1253.07%" x2="50%" y2="-107.32%" id="linearGradient-14"><stop stop-color="#00ACAF" offset="0%"/><stop stop-color="#C5D97F" offset="100%"/></linearGradient><linearGradient x1="50%" y1="1112.73%" x2="50%" y2="-247.68%" id="linearGradient-15"><stop stop-color="#00ACAF" offset="0%"/><stop stop-color="#C5D97F" offset="100%"/></linearGradient><linearGradient x1="50%" y1="149.9%" x2="50%" y2="-57.84%" id="linearGradient-16"><stop stop-color="#00ACAF" offset="0%"/><stop stop-color="#C5D97F" offset="100%"/></linearGradient><linearGradient x1="0%" y1="50.01%" y2="50.01%" id="linearGradient-17"><stop stop-color="#00ACAF" offset="0%"/><stop stop-color="#C5D97F" offset="100%"/></linearGradient><linearGradient x1=".01%" y1="50%" y2="50%" id="linearGradient-18"><stop stop-color="#00ACAF" offset="0%"/><stop stop-color="#C5D97F" offset="100%"/></linearGradient><linearGradient x1="0%" y1="50%" y2="50%" id="linearGradient-19"><stop stop-color="#00ACAF" offset="0%"/><stop stop-color="#C5D97F" offset="100%"/></linearGradient><linearGradient x1="50%" y1="100%" x2="50%" y2="-6.49%" id="linearGradient-20"><stop stop-color="#00ACAF" offset="0%"/><stop stop-color="#C5D97F" offset="100%"/></linearGradient><linearGradient x1="50%" y1="107.81%" x2="50%" y2="-7%" id="linearGradient-21"><stop stop-color="#008D80" offset="0%"/><stop stop-color="#65B65A" offset="100%"/></linearGradient><linearGradient x1="49.99%" y1="107.82%" x2="49.99%" y2="-6.96%" id="linearGradient-22"><stop stop-color="#00ACAF" offset="0%"/><stop stop-color="#C5D97F" offset="100%"/></linearGradient><linearGradient x1="50.01%" y1="107.79%" x2="50.01%" y2="-7.04%" id="linearGradient-23"><stop stop-color="#00ACAF" offset="0%"/><stop stop-color="#C5D97F" offset="100%"/></linearGradient><linearGradient x1="50%" y1="107.82%" x2="50%" y2="-6.99%" id="linearGradient-24"><stop stop-color="#00ACAF" offset="0%"/><stop stop-color="#C5D97F" offset="100%"/></linearGradient><linearGradient x1="50.01%" y1="107.82%" x2="50.01%" y2="-6.99%" id="linearGradient-25"><stop stop-color="#00ACAF" offset="0%"/><stop stop-color="#C5D97F" offset="100%"/></linearGradient><linearGradient x1="49.99%" y1="107.79%" x2="49.99%" y2="-6.99%" id="linearGradient-26"><stop stop-color="#00ACAF" offset="0%"/><stop stop-color="#C5D97F" offset="100%"/></linearGradient><linearGradient x1="49.98%" y1="107.82%" x2="49.98%" y2="-6.98%" id="linearGradient-27"><stop stop-color="#00ACAF" offset="0%"/><stop stop-color="#C5D97F" offset="100%"/></linearGradient><linearGradient x1="0%" y1="50%" y2="50%" id="linearGradient-28"><stop stop-color="#00ACAF" offset="0%"/><stop stop-color="#00A0A9" offset="9.3%"/><stop stop-color="#008496" offset="27.02%"/><stop stop-color="#035976" offset="51.32%"/><stop stop-color="#1B264B" offset="80.94%"/><stop stop-color="#18072F" offset="100%"/></linearGradient><linearGradient x1="0%" y1="49.99%" x2="99.99%" y2="49.99%" id="linearGradient-29"><stop stop-color="#00ACAF" offset="0%"/><stop stop-color="#00A0A9" offset="9.3%"/><stop stop-color="#008496" offset="27.02%"/><stop stop-color="#035976" offset="51.32%"/><stop stop-color="#1B264B" offset="80.94%"/><stop stop-color="#18072F" offset="100%"/></linearGradient><path d="M.95.53H.1V295.2H.4l-.04 12.85C119.98 392.9 388.48 452 700.5 452c312.52 0 581.36-59.3 700.68-144.35l-.05-12.45h.8V.53h-.34l-.25 60.6C1283.3 148.93 1013.7 210.3 700 210.3c-311.43 0-579.4-60.47-698.76-147.26L.94.54z" id="path-30"/><linearGradient x1="0%" y1="49.98%" x2="100.01%" y2="49.98%" id="linearGradient-32"><stop stop-color="#9AC331" offset="0%"/><stop stop-color="#8FB53D" offset="9.3%"/><stop stop-color="#719250" offset="27.02%"/><stop stop-color="#4B6056" offset="51.32%"/><stop stop-color="#282843" offset="80.94%"/><stop stop-color="#18072F" offset="100%"/></linearGradient><linearGradient x1="0%" y1="50%" y2="50%" id="linearGradient-33"><stop stop-color="#522D46" offset="0%"/><stop stop-color="#4B2743" offset="15.93%"/><stop stop-color="#391B3B" offset="46.28%"/><stop stop-color="#1F0B32" offset="87.55%"/><stop stop-color="#18072F" offset="100%"/></linearGradient><linearGradient x1="0%" y1="50%" y2="50%" id="linearGradient-34"><stop stop-color="#A0D0AA" offset="0%"/><stop stop-color="#94C0A5" offset="9.3%"/><stop stop-color="#769A95" offset="27.02%"/><stop stop-color="#4E6376" offset="51.32%"/><stop stop-color="#29274A" offset="80.94%"/><stop stop-color="#18072F" offset="100%"/></linearGradient><linearGradient x1="0%" y1="50%" x2="100.01%" y2="50%" id="linearGradient-35"><stop stop-color="#00ACAF" offset="0%"/><stop stop-color="#00A0A9" offset="9.3%"/><stop stop-color="#008496" offset="27.02%"/><stop stop-color="#035976" offset="51.32%"/><stop stop-color="#1B264B" offset="80.94%"/><stop stop-color="#18072F" offset="100%"/></linearGradient><linearGradient x1="0%" y1="50.01%" x2="100.01%" y2="50.01%" id="linearGradient-36"><stop stop-color="#00ACAF" offset="0%"/><stop stop-color="#00A0A9" offset="9.3%"/><stop stop-color="#008496" offset="27.02%"/><stop stop-color="#035976" offset="51.32%"/><stop stop-color="#1B264B" offset="80.94%"/><stop stop-color="#18072F" offset="100%"/></linearGradient><linearGradient x1="28.65%" y1="16.58%" x2="77.95%" y2="75.76%" id="linearGradient-37"><stop stop-color="#FAD6DF" offset="0%"/><stop stop-color="#EFA7AE" offset="20.98%"/><stop stop-color="#E16D78" offset="48.37%"/><stop stop-color="#D73F56" offset="71.64%"/><stop stop-color="#D11E46" offset="89.57%"/><stop stop-color="#CF0540" offset="100%"/></linearGradient><linearGradient x1="50.01%" y1="107.77%" x2="50.01%" y2="-7.02%" id="linearGradient-38"><stop stop-color="#CCAAD1" offset="0%"/><stop stop-color="#D1768F" offset="41.52%"/><stop stop-color="#CF0540" offset="100%"/></linearGradient><linearGradient x1="-.01%" y1="49.99%" y2="49.99%" id="linearGradient-39"><stop stop-color="#00ACAF" offset="0%"/><stop stop-color="#00AEA6" offset="14.56%"/><stop stop-color="#46B48C" offset="42.3%"/><stop stop-color="#82BD57" offset="80%"/><stop stop-color="#9AC331" offset="100%"/></linearGradient><linearGradient x1="0%" y1="49.99%" x2="99.99%" y2="49.99%" id="linearGradient-40"><stop stop-color="#00ACAF" offset="0%"/><stop stop-color="#00AEA6" offset="14.56%"/><stop stop-color="#46B48C" offset="42.3%"/><stop stop-color="#82BD57" offset="80%"/><stop stop-color="#9AC331" offset="100%"/></linearGradient><path d="M.95.53H.1V295.2H.4l-.04 12.85C119.98 392.9 388.48 452 700.5 452c312.52 0 581.36-59.3 700.68-144.35l-.05-12.45h.8V.53h-.34l-.25 60.6C1283.3 148.93 1013.7 210.3 700 210.3c-311.43 0-579.4-60.47-698.76-147.26L.94.54z" id="path-41"/><linearGradient x1="0%" y1="50%" y2="50%" id="linearGradient-43"><stop stop-color="#82368C" offset="0%"/><stop stop-color="#682280" offset="36.97%"/><stop stop-color="#18072F" offset="100%"/></linearGradient><linearGradient x1="0%" y1="49.99%" y2="49.99%" id="linearGradient-44"><stop stop-color="#F07E26" offset="0%"/><stop stop-color="#F18633" offset="44.48%"/><stop stop-color="#F3934A" offset="100%"/></linearGradient><linearGradient x1="0%" y1="50%" y2="50%" id="linearGradient-45"><stop stop-color="#F07E26" offset="0%"/><stop stop-color="#E35328" offset="40.06%"/><stop stop-color="#D92C27" offset="79.36%"/><stop stop-color="#D61726" offset="100%"/></linearGradient><linearGradient x1="-.01%" y1="50.01%" y2="50.01%" id="linearGradient-46"><stop stop-color="#E83E33" offset="0%"/><stop stop-color="#D83B37" offset="9.53%"/><stop stop-color="#B0343F" offset="27.7%"/><stop stop-color="#772642" offset="52.63%"/><stop stop-color="#36143B" offset="83.01%"/><stop stop-color="#18072F" offset="100%"/></linearGradient><linearGradient x1="3%" y1="32.9%" x2="97%" y2="67.11%" id="linearGradient-47"><stop stop-color="#F07E26" offset="0%"/><stop stop-color="#EA5631" offset="9.39%"/><stop stop-color="#E83E33" offset="15.15%"/><stop stop-color="#A73240" offset="35.44%"/><stop stop-color="#38153C" offset="80.3%"/><stop stop-color="#18072F" offset="100%"/></linearGradient><linearGradient x1=".01%" y1="50%" y2="50%" id="linearGradient-48"><stop stop-color="#682280" offset="0%"/><stop stop-color="#60217A" offset="12.32%"/><stop stop-color="#4E1D6A" offset="35.81%"/><stop stop-color="#321550" offset="67.9%"/><stop stop-color="#18072F" offset="100%"/></linearGradient><linearGradient x1="32.34%" y1="8.45%" x2="75.7%" y2="89.4%" id="linearGradient-49"><stop stop-color="#F07E26" offset="0%"/><stop stop-color="#EF7A32" offset="23.19%"/><stop stop-color="#EE6F4D" offset="67.14%"/><stop stop-color="#EC665E" offset="100%"/></linearGradient><linearGradient x1="-11.2%" y1="-6.12%" x2="122.37%" y2="94.07%" id="linearGradient-50"><stop stop-color="#F07E26" offset="0%"/><stop stop-color="#EF7A32" offset="23.19%"/><stop stop-color="#EE6F4D" offset="67.14%"/><stop stop-color="#EC665E" offset="100%"/></linearGradient><linearGradient x1="-14.93%" y1="7.67%" x2="163.23%" y2="89.13%" id="linearGradient-51"><stop stop-color="#F07E26" offset="0%"/><stop stop-color="#EF7A32" offset="23.19%"/><stop stop-color="#EE6F4D" offset="67.14%"/><stop stop-color="#EC665E" offset="100%"/></linearGradient><linearGradient x1="49.4%" y1="-139.38%" x2="52.62%" y2="879.6%" id="linearGradient-52"><stop stop-color="#F07E26" offset="0%"/><stop stop-color="#EF7A32" offset="23.19%"/><stop stop-color="#EE6F4D" offset="67.14%"/><stop stop-color="#EC665E" offset="100%"/></linearGradient><linearGradient x1="49.45%" y1="-145.18%" x2="52.46%" y2="916.11%" id="linearGradient-53"><stop stop-color="#F07E26" offset="0%"/><stop stop-color="#EF7A32" offset="23.19%"/><stop stop-color="#EE6F4D" offset="67.14%"/><stop stop-color="#EC665E" offset="100%"/></linearGradient><linearGradient x1="47.88%" y1="18.91%" x2="65.06%" y2="276.66%" id="linearGradient-54"><stop stop-color="#F07E26" offset="0%"/><stop stop-color="#EF7A32" offset="23.19%"/><stop stop-color="#EE6F4D" offset="67.14%"/><stop stop-color="#EC665E" offset="100%"/></linearGradient><linearGradient x1="47.95%" y1="19.22%" x2="64.57%" y2="281.29%" id="linearGradient-55"><stop stop-color="#F07E26" offset="0%"/><stop stop-color="#EF7A32" offset="23.19%"/><stop stop-color="#EE6F4D" offset="67.14%"/><stop stop-color="#EC665E" offset="100%"/></linearGradient><linearGradient x1="49.05%" y1="-47.64%" x2="57.16%" y2="844.86%" id="linearGradient-56"><stop stop-color="#F07E26" offset="0%"/><stop stop-color="#EF7A32" offset="23.19%"/><stop stop-color="#EE6F4D" offset="67.14%"/><stop stop-color="#EC665E" offset="100%"/></linearGradient><linearGradient x1="48.59%" y1="-19.37%" x2="53.63%" y2="257.75%" id="linearGradient-57"><stop stop-color="#F07E26" offset="0%"/><stop stop-color="#EF7A32" offset="23.19%"/><stop stop-color="#EE6F4D" offset="67.14%"/><stop stop-color="#EC665E" offset="100%"/></linearGradient><linearGradient x1="49.3%" y1="-46.02%" x2="52.41%" y2="374.87%" id="linearGradient-58"><stop stop-color="#F07E26" offset="0%"/><stop stop-color="#EF7A32" offset="23.19%"/><stop stop-color="#EE6F4D" offset="67.14%"/><stop stop-color="#EC665E" offset="100%"/></linearGradient><linearGradient x1="47.16%" y1="-84.24%" x2="53%" y2="191.12%" id="linearGradient-59"><stop stop-color="#F07E26" offset="0%"/><stop stop-color="#EF7A32" offset="23.19%"/><stop stop-color="#EE6F4D" offset="67.14%"/><stop stop-color="#EC665E" offset="100%"/></linearGradient><linearGradient x1="47.26%" y1="-86.26%" x2="52.98%" y2="195.68%" id="linearGradient-60"><stop stop-color="#F07E26" offset="0%"/><stop stop-color="#EF7A32" offset="23.19%"/><stop stop-color="#EE6F4D" offset="67.14%"/><stop stop-color="#EC665E" offset="100%"/></linearGradient><linearGradient x1="37.87%" y1="-77.7%" x2="56.95%" y2="87.25%" id="linearGradient-61"><stop stop-color="#F07E26" offset="0%"/><stop stop-color="#EF7A32" offset="23.19%"/><stop stop-color="#EE6F4D" offset="67.14%"/><stop stop-color="#EC665E" offset="100%"/></linearGradient><linearGradient x1="39.1%" y1="-81.95%" x2="56.25%" y2="92.02%" id="linearGradient-62"><stop stop-color="#F07E26" offset="0%"/><stop stop-color="#EF7A32" offset="23.19%"/><stop stop-color="#EE6F4D" offset="67.14%"/><stop stop-color="#EC665E" offset="100%"/></linearGradient><linearGradient x1="-50.94%" y1="-267.4%" x2="54.52%" y2="64.21%" id="linearGradient-63"><stop stop-color="#F07E26" offset="0%"/><stop stop-color="#EF7A32" offset="23.19%"/><stop stop-color="#EE6F4D" offset="67.14%"/><stop stop-color="#EC665E" offset="100%"/></linearGradient><linearGradient x1="-50.94%" y1="-267.44%" x2="54.52%" y2="64.22%" id="linearGradient-64"><stop stop-color="#F07E26" offset="0%"/><stop stop-color="#EF7A32" offset="23.19%"/><stop stop-color="#EE6F4D" offset="67.14%"/><stop stop-color="#EC665E" offset="100%"/></linearGradient><linearGradient x1="48.89%" y1="-16.61%" x2="53.47%" y2="313.3%" id="linearGradient-65"><stop stop-color="#F07E26" offset="0%"/><stop stop-color="#EF7A32" offset="23.19%"/><stop stop-color="#EE6F4D" offset="67.14%"/><stop stop-color="#EC665E" offset="100%"/></linearGradient><linearGradient x1="49.11%" y1="-16.7%" x2="53.57%" y2="354%" id="linearGradient-66"><stop stop-color="#F07E26" offset="0%"/><stop stop-color="#EF7A32" offset="23.19%"/><stop stop-color="#EE6F4D" offset="67.14%"/><stop stop-color="#EC665E" offset="100%"/></linearGradient><linearGradient x1="46.08%" y1="-64.8%" x2="54.17%" y2="165.48%" id="linearGradient-67"><stop stop-color="#F07E26" offset="0%"/><stop stop-color="#EF7A32" offset="23.19%"/><stop stop-color="#EE6F4D" offset="67.14%"/><stop stop-color="#EC665E" offset="100%"/></linearGradient><linearGradient x1="46.88%" y1="-73.93%" x2="53.59%" y2="188.84%" id="linearGradient-68"><stop stop-color="#F07E26" offset="0%"/><stop stop-color="#EF7A32" offset="23.19%"/><stop stop-color="#EE6F4D" offset="67.14%"/><stop stop-color="#EC665E" offset="100%"/></linearGradient><linearGradient x1="38.56%" y1="-85.74%" x2="56.26%" y2="85.62%" id="linearGradient-69"><stop stop-color="#F07E26" offset="0%"/><stop stop-color="#EF7A32" offset="23.19%"/><stop stop-color="#EE6F4D" offset="67.14%"/><stop stop-color="#EC665E" offset="100%"/></linearGradient><linearGradient x1="43%" y1="-109.64%" x2="53.83%" y2="109.49%" id="linearGradient-70"><stop stop-color="#F07E26" offset="0%"/><stop stop-color="#EF7A32" offset="23.19%"/><stop stop-color="#EE6F4D" offset="67.14%"/><stop stop-color="#EC665E" offset="100%"/></linearGradient><linearGradient x1="0%" y1="50%" y2="50%" id="linearGradient-71"><stop stop-color="#F07E26" offset="0%"/><stop stop-color="#EF7A32" offset="23.19%"/><stop stop-color="#EE6F4D" offset="67.14%"/><stop stop-color="#EC665E" offset="100%"/></linearGradient><linearGradient x1="0%" y1="50%" y2="50%" id="linearGradient-72"><stop stop-color="#F3934A" offset="0%"/><stop stop-color="#F07E26" offset="36.36%"/><stop stop-color="#EC7027" offset="42.49%"/><stop stop-color="#E14C28" offset="54.16%"/><stop stop-color="#D61726" offset="66.06%"/><stop stop-color="#682280" offset="100%"/></linearGradient></defs><g id="Page-1" fill="none" fill-rule="evenodd"><g id="bg_1"><g id="Page-1"><g id="Index"><g id="LF"><g id="bg"><g id="Mask" fill="#18072F"><path d="M.1 235.2v12.3C119.7 332.33 388.46 392 700.5 392c312.52 0 582.1-59.45 701.42-144.5V.75C1283.87 88.57 1013.72 150.3 700 150.3 388.57 150.3 119.45 89.18.1 2.38V235.2z" id="path-1"/></g><g id="Rectangle-path-Copy-Clipped" transform="translate(0 -60)"><mask id="mask-2" fill="#fff"><use xlink:href="#path-1"/></mask><path id="Rectangle-path-Copy" fill="url(#radialGradient-3)" mask="url(#mask-2)" d="M318-75h1402.14v927.02H318z"/></g><g id="star-copy-Clipped" transform="translate(0 -60)"><mask id="mask-5" fill="#fff"><use xlink:href="#path-4"/></mask><g id="star-copy" mask="url(#mask-5)"><g fill="#FFF" id="Group"><g transform="translate(30.07 13.47)" id="Oval"><g transform="translate(288.446 191.78)"><circle cx="117.32" cy="61.07" r="1.36"/><circle cx="2.02" cy="63.79" r="1.11"/><circle cx="92.83" cy=".92" r=".76"/><circle cx="80.35" cy="33.62" r=".87"/></g><circle cx="17.85" cy="354.46" r="1.36"/><circle cx="323.75" cy="372.28" r="1.11"/><circle cx="449.62" cy="372.31" r=".76"/><circle cx="402.09" cy="342.1" r=".87"/><g transform="translate(381.335 46.334)"><circle cx="14.2" cy="116.47" r="1.36"/><circle cx="1.43" cy="1.85" r="1.11"/><circle cx="71.98" cy="86.83" r=".76"/><circle cx="38.32" cy="77.25" r=".87"/></g><g transform="translate(101.277 293.122)"><circle cx="1.78" cy="4.95" r="1.74"/><circle cx="148.72" cy="1.47" r="1.41"/><circle cx="32.99" cy="81.59" r=".97"/><circle cx="48.89" cy="39.92" r="1.1"/></g><g transform="translate(0 57.334)"><circle cx="5.3" cy="149.21" r="1.74"/><ellipse cx="1.82" cy="2.27" rx="1.41" ry="1.41"/><circle cx="81.94" cy="118" r=".97"/><circle cx="40.27" cy="102.1" r="1.1"/></g></g><g transform="translate(1069.852 415.303)" id="Oval"><ellipse cx="1.91" cy="1.08" rx="1.03" ry="1.03"/><ellipse cx="148.78" cy="13.64" rx=".8" ry=".8"/><circle cx="1.81" cy="1.45" r="1.31" transform="translate(66.565 34.39)"/><ellipse cx="1.85" cy="1.35" rx=".9" ry=".9" transform="translate(249.112 6.28)"/></g><g transform="translate(547.072 177.137)" id="Oval"><g transform="translate(232.223 219.9)"><ellipse cx="93.68" cy="48.87" rx="1.09" ry="1.09"/><ellipse cx="1.18" cy="51.05" rx=".89" ry=".89"/><ellipse cx="74.03" cy=".61" rx=".61" ry=".61"/><ellipse cx="64.02" cy="26.85" rx=".69" ry=".69"/></g><ellipse cx="74.24" cy="1.07" rx=".89" ry=".89"/><ellipse cx="201.42" cy="11.94" rx=".69" ry=".69"/><g transform="translate(306.557 103.667)"><ellipse cx="11.14" cy="92.86" rx="1.09" ry="1.09"/><ellipse cx=".9" cy=".9" rx=".89" ry=".89"/><ellipse cx="57.5" cy="69.08" rx=".61" ry=".61"/><ellipse cx="30.49" cy="61.4" rx=".69" ry=".69"/></g><g transform="translate(12.222 29.333)"><circle cx="1.69" cy="4.62" r="1.39"/><ellipse cx="119.57" cy="1.84" rx="1.13" ry="1.13"/><ellipse cx="26.73" cy="66.12" rx=".78" ry=".78"/><ellipse cx="39.48" cy="32.68" rx=".88" ry=".88"/></g><g transform="translate(0 112.445)"><ellipse cx="4.61" cy="119.18" rx="1.4" ry="1.4"/><ellipse cx="1.82" cy="1.29" rx="1.13" ry="1.13"/><ellipse cx="66.11" cy="94.14" rx=".78" ry=".78"/><ellipse cx="32.67" cy="81.38" rx=".88" ry=".88"/></g><g transform="translate(195.556 5.943)"><ellipse cx="119.39" cy="62.29" rx="1.39" ry="1.39"/><circle cx="1.5" cy="65.08" r="1.13"/><ellipse cx="94.35" cy=".8" rx=".78" ry=".78"/><circle cx="81.59" cy="34.23" r=".88"/></g></g><g transform="translate(328.294 245.582)" id="Oval"><circle cx="73.87" cy=".89" r=".89"/><ellipse cx="201.04" cy="11.76" rx=".69" ry=".69"/><g transform="translate(305.557 102.667)"><circle cx="11.77" cy="93.68" r="1.09"/><ellipse cx="1.52" cy="1.72" rx=".89" ry=".89"/><circle cx="58.13" cy="69.9" r=".61"/><circle cx="31.12" cy="62.22" r=".69"/></g><g transform="translate(12.12 29.333)"><ellipse cx="1.41" cy="4.44" rx="1.39" ry="1.39"/><circle cx="119.3" cy="1.65" r="1.13"/><ellipse cx="26.45" cy="65.94" rx=".78" ry=".78"/><circle cx="39.21" cy="32.5" r=".88"/></g><g transform="translate(0 112.344)"><circle cx="1.45" cy="1.21" r="1.13"/><ellipse cx="65.73" cy="94.06" rx=".78" ry=".78"/><circle cx="32.3" cy="81.3" r=".89"/></g><g transform="translate(195.455 4.89)"><ellipse cx="119.12" cy="63.17" rx="1.39" ry="1.39"/><circle cx="1.23" cy="65.95" r="1.13"/><ellipse cx="94.08" cy="1.67" rx=".78" ry=".78"/><circle cx="81.32" cy="35.1" r=".89"/></g></g><g transform="translate(1187.36 346.884)" id="Oval"><circle cx="44.73" cy="1.28" r=".53"/><circle cx="121.1" cy="7.81" r=".42"/><g transform="translate(183.334 62.334)"><circle cx="1.44" cy="1.09" r=".53"/><circle cx="19.21" cy="37.42" r=".42"/></g><g transform="translate(7.333 18.333)"><circle cx="1.17" cy="2.69" r=".84"/><circle cx="71.96" cy="1.02" r=".68"/><circle cx="16.21" cy="39.62" r=".47"/><circle cx="23.87" cy="19.54" r=".53"/></g><circle cx="1.25" cy=".71" r=".68" transform="translate(0 68.222)"/><g transform="translate(117.334 3.667)"><ellipse cx="71.94" cy="37.94" rx=".84" ry=".84"/><ellipse cx="1.15" cy="39.62" rx=".68" ry=".68"/><ellipse cx="56.9" cy="1.02" rx=".47" ry=".47"/><ellipse cx="49.24" cy="21.09" rx=".53" ry=".53"/></g></g><g id="Oval" transform="translate(910.074 325.026)"><ellipse cx="161.16" cy="84.94" rx="1.88" ry="1.88"/><ellipse cx="1.68" cy="88.71" rx="1.53" ry="1.53"/><ellipse cx="127.28" cy="1.74" rx="1.06" ry="1.06"/><ellipse cx="110.03" cy="46.98" rx="1.2" ry="1.2"/></g><g transform="translate(1037.185 124.58)"><path d="M19.73 158.97c1.04-.1 1.95.67 2.04 1.7.1 1.05-.67 1.96-1.7 2.05-1.05.1-1.96-.67-2.05-1.7-.1-1.05.67-1.96 1.7-2.05zM2.1.77c.84-.07 1.6.55 1.66 1.4.07.84-.55 1.58-1.4 1.65C1.53 3.9.8 3.27.72 2.42.65 1.6 1.27.85 2.1.78z" id="Shape"/><ellipse id="Oval" cx="99.82" cy="119.84" rx="1.06" ry="1.06"/><ellipse id="Oval" cx="53.25" cy="106.59" rx="1.2" ry="1.2"/></g><ellipse cx="1.55" cy="59.69" rx="1.35" ry="1.35" id="Oval" transform="translate(574.96 51.47)"/><g id="Oval" transform="translate(510.405 140.47)"><circle cx="6.91" cy="205.46" r="2.4"/><ellipse cx="2.1" cy="2.21" rx="1.95" ry="1.95"/><ellipse cx="112.93" cy="162.28" rx="1.35" ry="1.35"/><ellipse cx="55.29" cy="140.29" rx="1.53" ry="1.53"/></g><g id="Oval" transform="translate(846.518 13.914)"><ellipse cx="205.82" cy="50.33" rx="2.4" ry="2.4"/><ellipse cx="2.58" cy="55.13" rx="1.95" ry="1.95"/></g><g transform="translate(1012.74 8.914)" id="Oval"><g transform="translate(245.668 124.223)"><ellipse cx="99.49" cy="52.36" rx="1.16" ry="1.16"/><ellipse cx="1.51" cy="54.68" rx=".94" ry=".94"/><ellipse cx="78.68" cy="1.25" rx=".65" ry=".65"/><ellipse cx="68.08" cy="29.04" rx=".74" ry=".74"/></g><circle cx="15.52" cy="262.94" r="1.16"/><circle cx="275.46" cy="278.07" r=".94"/><circle cx="382.42" cy="278.1" r=".65"/><circle cx="342.03" cy="252.43" r=".73"/><g transform="translate(323.89 .778)"><ellipse cx="12.57" cy="99.29" rx="1.16" ry="1.16"/><ellipse cx="61.67" cy="74.1" rx=".65" ry=".65"/><ellipse cx="33.07" cy="65.96" rx=".74" ry=".74"/></g><g transform="translate(85.556 210.833)"><circle cx="2.37" cy="4.18" r="1.48"/><circle cx="127.23" cy="1.23" r="1.2"/><circle cx="28.89" cy="69.31" r=".83"/><ellipse cx="42.4" cy="33.9" rx=".94" ry=".94"/></g><g transform="translate(0 10.556)"><circle cx="4.85" cy="126.68" r="1.48"/><circle cx="69.98" cy="100.16" r=".83"/><ellipse cx="34.57" cy="86.65" rx=".94" ry=".94"/></g></g><g transform="translate(9.848 366.582)"><ellipse id="Oval" cx="78.11" cy="2" rx="1.11" ry="1.11"/><ellipse id="Oval" cx="237.04" cy="15.58" rx=".87" ry=".87"/><g transform="translate(.667 37.89)"><ellipse id="Oval" cx="2.05" cy="5.21" rx="1.74" ry="1.74"/><ellipse id="Oval" cx="149.36" cy="1.72" rx="1.42" ry="1.42"/><path d="M50.4 40.27c0 .6-.5 1.1-1.12 1.1-.6 0-1.1-.5-1.1-1.1 0-.6.5-1.1 1.1-1.1.6 0 1.1.5 1.1 1.1z" id="Shape"/></g><g id="Oval" transform="translate(330.223 7.333)"><ellipse cx="48.69" cy="78.6" rx="1.74" ry="1.74"/><ellipse cx="17.39" cy="1.75" rx=".98" ry=".98"/><ellipse cx="1.45" cy="43.53" rx="1.11" ry="1.11"/></g></g></g></g></g><g id="planet-copy-Clipped" transform="translate(0 -60)"><mask id="mask-7" fill="#fff"><use xlink:href="#path-6"/></mask><g id="planet-copy" opacity=".64" mask="url(#mask-7)"><g transform="translate(-54.812 114)" id="Group"><g transform="translate(230.57 243.057)" id="Oval" fill="#FFF"><ellipse cx="105.63" cy="55.3" rx="1.24" ry="1.24"/><ellipse cx="1.02" cy="57.78" rx="1.01" ry="1.01"/><ellipse cx="83.41" cy=".73" rx=".69" ry=".69"/><ellipse cx="72.09" cy="30.4" rx=".78" ry=".78"/></g><ellipse id="Oval" fill="#FFF" cx="195.42" cy="7.93" rx=".78" ry=".78"/><g transform="translate(314.07 111.664)" id="Oval" fill="#FFF"><ellipse cx="12.84" cy="105.01" rx="1.24" ry="1.24"/><ellipse cx="1.26" cy="1.01" rx="1" ry="1"/><ellipse cx="65.27" cy="78.11" rx=".69" ry=".69"/><ellipse cx="34.73" cy="69.42" rx=".79" ry=".79"/></g><g transform="translate(254.104 301.31)" id="Oval"><ellipse fill="url(#linearGradient-8)" opacity=".2" cx="17.27" cy="17.96" rx="17.19" ry="17.19"/><ellipse fill="url(#linearGradient-9)" cx="17.64" cy="17.78" rx="8.78" ry="8.78"/></g><ellipse id="Oval" fill="url(#linearGradient-10)" cx="98.67" cy="319.79" rx="22.8" ry="22.8"/><ellipse id="Oval" fill="url(#linearGradient-11)" cx="259.48" cy="111.33" rx="41.37" ry="41.37"/><ellipse id="Oval" stroke="#FFF" stroke-width="4" fill="#00ACAF" opacity=".2" cx="176.31" cy="207.3" rx="146.31" ry="146.31"/><ellipse id="Oval" stroke="#FFF" stroke-width="4" fill="#00ACAF" opacity=".2" cx="176.31" cy="207.3" rx="121.92" ry="121.92"/><path d="M172.7 95.9c.4 0 .82.05 1.2.14 54.32 2.88 97.47 47.83 97.47 102.85 0 56.88-46.12 103-103 103-56.9 0-103-46.1-103-103 0-18.05 4.64-35 12.8-49.76h-2.18c-2.9 0-5.27-2.35-5.27-5.25s2.36-5.27 5.26-5.27l29.42-.23c2.9 0 5.26-2.35 5.26-5.26 0-2.9-2.36-5.25-5.26-5.25H75.76c-2.9 0-5.26-2.36-5.26-5.27 0-2.9 2.35-5.25 5.26-5.25l88.52-.24c2.9 0 5.25-2.35 5.25-5.25s-2.35-5.27-5.25-5.27l-70.07-.23c-2.9 0-5.25-2.35-5.25-5.25s2.36-5.26 5.26-5.26h78.5zm0-10.3H94.2c-8.56 0-15.52 6.98-15.52 15.55 0 2.1.42 4.1 1.18 5.94h-4.1c-8.58 0-15.54 6.97-15.54 15.53 0 4.17 1.65 7.97 4.34 10.76-2.55 2.75-4.1 6.45-4.1 10.5 0 3.9 1.45 7.48 3.84 10.2-6.05 14.1-9.2 29.37-9.2 44.8 0 15.3 2.98 30.12 8.9 44.1 5.7 13.48 13.86 25.6 24.27 36 10.4 10.4 22.5 18.57 36 24.27 13.97 5.9 28.8 8.9 44.1 8.9 15.28 0 30.12-3 44.1-8.9 13.48-5.7 25.6-13.87 36-24.27 10.4-10.4 18.56-22.52 24.27-36 5.9-13.98 8.9-28.8 8.9-44.1 0-29.2-11.07-56.92-31.2-78.07-19.86-20.9-46.57-33.3-75.26-35-.83-.15-1.66-.22-2.5-.22z" opacity=".5" id="Shape" fill="#00ACAF"/><path d="M179.52 96.04c-.4-.1-.8-.15-1.23-.15H99.8c-2.9 0-5.24 2.34-5.24 5.25 0 2.9 2.35 5.25 5.25 5.25l70.08.24c2.9 0 5.26 2.35 5.26 5.25s-2.35 5.25-5.26 5.25l-88.52.23c-2.9 0-5.25 2.35-5.25 5.25s2.36 5.26 5.26 5.26h29.67c2.9 0 5.25 2.34 5.25 5.25 0 2.9-2.35 5.25-5.25 5.25l-29.43.24c-2.9 0-5.26 2.35-5.26 5.25s2.35 5.25 5.26 5.25h2.17c-8.15 14.74-12.8 31.7-12.8 49.75 0 56.9 46.1 103 103 103s103-46.1 103-103c0-55.03-43.14-99.98-97.45-102.86z" id="Shape" fill="#002D40" opacity=".2"/><path d="M173.9 96.04c-.38-.1-.8-.15-1.2-.15H94.2c-2.9 0-5.25 2.34-5.25 5.25 0 2.9 2.36 5.25 5.26 5.25l70.08.24c2.9 0 5.25 2.35 5.25 5.25s-2.35 5.25-5.25 5.25l-88.52.23c-2.9 0-5.26 2.35-5.26 5.25s2.35 5.26 5.26 5.26h29.66c2.9 0 5.26 2.34 5.26 5.25 0 2.9-2.36 5.25-5.26 5.25l-29.43.24c-2.9 0-5.27 2.35-5.27 5.25s2.36 5.25 5.26 5.25h2.16c-8.15 14.74-12.8 31.7-12.8 49.75 0 56.9 46.12 103 103 103 56.9 0 103-46.1 103-103 0-55.03-43.14-99.98-97.45-102.86z" id="Shape" fill="url(#linearGradient-12)"/><path d="M96.3 100.8h78.5c.4 0 .82.05 1.22.14 34.97 1.86 65.3 21.16 82.48 49.37-16.53-30.84-48.32-52.3-85.3-54.26-.38-.1-.8-.15-1.2-.15H93.5c-2.9 0-5.25 2.34-5.25 5.25 0 2.02 1.14 3.77 2.82 4.65.13-2.8 2.42-5 5.24-5z" id="Shape" fill="url(#linearGradient-13)"/><path d="M78.56 122.28l88.52-.23c2.9 0 5.26-2.35 5.26-5.26 0-2.03-1.14-3.78-2.82-4.66-.13 2.8-2.42 5-5.24 5l-88.52.24c-2.9 0-5.26 2.35-5.26 5.25 0 2.02 1.14 3.78 2.82 4.66.13-2.8 2.42-5.02 5.24-5.02z" id="Shape" fill="url(#linearGradient-14)"/><path d="M78.8 143.54l29.42-.23c2.9 0 5.26-2.35 5.26-5.25 0-2.02-1.14-3.77-2.82-4.65-.13 2.78-2.42 5-5.24 5l-29.43.23c-2.9 0-5.27 2.36-5.27 5.26 0 2 1.15 3.76 2.82 4.64.13-2.78 2.42-5 5.24-5z" id="Shape" fill="url(#linearGradient-15)"/><path d="M80.97 154.05H78.8c-1.03 0-1.98-.3-2.8-.8C69.2 167 65.37 182.5 65.37 198.9c0 19.6 5.48 37.92 14.98 53.52-7.76-14.5-12.17-31.03-12.17-48.62 0-18.04 4.64-35 12.8-49.75z" id="Shape" fill="url(#linearGradient-16)"/><ellipse id="Oval" fill="url(#linearGradient-17)" cx="221.44" cy="235.68" rx="9.62" ry="10.16"/><ellipse id="Oval" fill="url(#linearGradient-18)" cx="151.7" cy="277.02" rx="5.55" ry="5.26"/><ellipse id="Oval" fill="url(#linearGradient-19)" cx="241.24" cy="181.14" rx="5.92" ry="7.5"/><path d="M217.68 108.22c14.97 17 24.43 39 25.55 63.18 4 .57 7.12 4.87 7.12 10.1 0 5.6-3.6 10.16-8.02 10.16h-.14c-1.87 12.38-5.94 24.05-11.8 34.6 2.36 2.4 3.83 5.8 3.83 9.54 0 7.35-5.64 13.3-12.6 13.3-2.42 0-4.68-.7-6.6-1.94-14.25 15-32.97 25.72-54.04 30-.03 5.02-4.33 9.1-9.63 9.1-4.56 0-8.37-3-9.37-7.04l-1.66.02c-17.86 0-34.66-4.55-49.3-12.54 18.87 21.43 46.52 34.97 77.33 34.97 56.88 0 103-46.12 103-103 0-39.03-21.7-72.98-53.7-90.45z" id="Shape" fill="url(#linearGradient-20)"/><path d="M268.57 197.6c-4-52.16-33.47-72.5-38.32-75.14 14.73 16.73 24.02 38.35 25.12 62.1 3.94.57 7 4.8 7 9.93 0 5.5-3.53 9.98-7.9 9.98h-.12c-1.82 12.18-5.83 23.65-11.6 34 2.33 2.38 3.78 5.7 3.78 9.4 0 7.22-5.55 13.08-12.4 13.08-2.37 0-4.6-.7-6.47-1.92-14 14.75-32.42 25.28-53.13 29.5 0 4.93-4.24 8.92-9.46 8.92-4.48 0-8.22-2.95-9.2-6.9h-1.64c-17.07 0-33.15-4.2-47.26-11.68 16.85 12.54 37.73 19.96 60.35 19.96 55.92 0 101.25-45.33 101.25-101.25z" id="Shape" fill="url(#linearGradient-21)"/><ellipse id="Oval" fill="url(#linearGradient-22)" cx="213.56" cy="200.65" rx="3.15" ry="3.15"/><ellipse id="Oval" fill="url(#linearGradient-23)" opacity=".3" cx="105.3" cy="251.1" rx="3.15" ry="3.15"/><ellipse id="Oval" fill="url(#linearGradient-24)" opacity=".3" cx="235.64" cy="164.56" rx="5.52" ry="5.52"/><ellipse id="Oval" fill="url(#linearGradient-25)" cx="209.36" cy="133.73" rx="4.93" ry="4.93"/><ellipse id="Oval" fill="url(#linearGradient-26)" cx="157.16" cy="254.95" rx="4.31" ry="4.31"/><ellipse id="Oval" fill="url(#linearGradient-27)" cx="205.85" cy="241.29" rx="3.5" ry="3.5"/><path d="M247.3 130.75c27.5-2.73 46.32.46 49.77 10.17 6.72 18.94-47.64 55.53-121.43 81.72-73.8 26.2-139.05 32.06-145.78 13.12-3.76-10.6 11.6-26.7 38.77-43.44-43.4 23.6-69.44 47.52-64.16 62.4 8.1 22.82 86.7 15.74 175.56-15.8 88.87-31.54 154.34-75.6 146.24-98.42-4.9-13.82-35.7-16.67-78.96-9.75z" id="Shape" fill="#C5D97F" opacity=".5"/><path d="M247.18 130.4c27-4.07 45.17-2.78 47.87 4.84 5.28 14.86-50.26 48.14-124.05 74.33-73.8 26.2-137.88 35.38-143.15 20.5-2.95-8.3 13.13-22.38 40.78-37.75-43.96 22.03-71 43.15-66.85 54.82 6.35 17.9 83.54 6.84 172.4-24.7 88.87-31.54 155.76-71.62 149.4-89.52-3.85-10.84-33.7-11.05-76.4-2.52z" id="Shape" fill="#C5D97F" opacity=".3"/><path d="M247.14 130.27c26.82-4.55 44.75-3.93 47.2 2.94 4.75 13.4-51.2 45.5-125 71.7-73.8 26.18-137.46 36.55-142.2 23.15-2.67-7.5 13.67-20.84 41.5-35.73C24.46 213.8-2.93 233.9.8 244.42c5.74 16.14 82.43 3.66 171.3-27.88 88.86-31.54 156.25-70.2 150.52-86.33-3.47-9.77-33-9.04-75.48.07z" id="Shape" fill="#C5D97F" opacity=".5"/><circle id="Oval" fill="url(#linearGradient-28)" cx="75.9" cy="316.64" r="7.03"/><circle id="Oval" fill="url(#linearGradient-29)" cx="327.45" cy="30.75" r="5.63"/><g transform="translate(59.363 334.534)" id="Oval" fill="#FFF"><ellipse cx="2.2" cy="4.85" rx="1.58" ry="1.58"/><ellipse cx="135.51" cy="1.7" rx="1.28" ry="1.28"/></g><g transform="translate(189.043 .92)" id="Oval" fill="#FFF"><circle cx="134.76" cy="70.67" r="1.58"/><ellipse cx="1.45" cy="73.82" rx="1.28" ry="1.28"/><ellipse cx="106.44" cy="1.13" rx=".88" ry=".88"/><circle cx="92.02" cy="38.93" r="1"/></g><g transform="translate(243.473 176.283)" fill="#FFF"><path d="M75.12 1.33c.68-.42 1.57-.2 2 .47.4.67.2 1.57-.47 2-.68.4-1.58.2-2-.47-.42-.68-.2-1.58.47-2z" id="Shape" opacity=".02"/><path d="M73.65 2.22c.7-.43 1.6-.2 2.02.47.43.68.22 1.6-.47 2.02-.7.43-1.6.2-2.03-.48-.43-.68-.2-1.6.48-2.02z" id="Shape" opacity=".04"/><path d="M72.18 3.1c.7-.43 1.62-.2 2.05.5.43.68.22 1.6-.48 2.04-.7.43-1.62.22-2.06-.48-.44-.7-.22-1.62.48-2.06z" id="Shape" opacity=".06"/><path d="M70.7 4c.72-.45 1.65-.23 2.1.48.43.7.2 1.64-.5 2.08-.7.44-1.64.22-2.08-.48-.45-.7-.22-1.65.5-2.1z" id="Shape" opacity=".08"/><path d="M69.24 4.88c.72-.45 1.66-.22 2.1.5.45.7.24 1.66-.48 2.1-.73.45-1.68.23-2.12-.5-.45-.7-.22-1.65.5-2.1z" id="Shape" opacity=".1"/><path d="M67.77 5.76c.73-.45 1.7-.22 2.14.5.46.73.24 1.7-.5 2.15-.72.46-1.7.24-2.14-.5-.45-.72-.22-1.68.5-2.14z" id="Shape" opacity=".12"/><path d="M66.3 6.65c.74-.46 1.7-.23 2.17.5.46.75.23 1.72-.5 2.18-.75.46-1.73.24-2.18-.5-.48-.74-.25-1.72.5-2.18z" id="Shape" opacity=".14"/><path d="M64.83 7.54c.75-.47 1.73-.23 2.2.52.46.74.24 1.73-.5 2.2-.77.46-1.76.23-2.22-.52-.46-.74-.23-1.74.53-2.2z" id="Shape" opacity=".16"/><path d="M63.36 8.42c.76-.47 1.76-.23 2.23.53.46.76.23 1.76-.53 2.23-.77.47-1.77.24-2.24-.52-.47-.76-.24-1.76.53-2.24z" id="Shape" opacity=".18"/><path d="M61.9 9.3c.76-.47 1.77-.22 2.25.54.47.77.24 1.8-.53 2.27-.77.5-1.8.25-2.27-.52s-.24-1.8.54-2.27z" id="Shape" opacity=".2"/><path d="M60.42 10.2c.78-.5 1.8-.24 2.3.54.47.78.23 1.8-.55 2.3-.78.47-1.8.23-2.3-.55-.48-.8-.24-1.82.55-2.3z" id="Shape" opacity=".22"/><path d="M58.95 11.1c.8-.5 1.83-.26 2.32.53.5.8.25 1.83-.54 2.32-.8.5-1.84.25-2.33-.54-.5-.78-.25-1.82.55-2.3z" id="Shape" opacity=".24"/><path d="M57.48 11.97c.8-.5 1.85-.24 2.35.56s.25 1.85-.55 2.35-1.86.25-2.36-.55c-.5-.8-.25-1.86.56-2.36z" id="Shape" opacity=".25"/><path d="M56 12.86c.82-.5 1.88-.25 2.4.56.5.8.24 1.88-.57 2.38-.8.5-1.88.25-2.4-.56-.5-.8-.24-1.88.58-2.38z" id="Shape" opacity=".27"/><path d="M54.54 13.75c.82-.5 1.9-.26 2.4.56.5.83.26 1.9-.56 2.42-.82.5-1.9.26-2.4-.56-.52-.82-.27-1.9.56-2.4z" id="Shape" opacity=".29"/><path d="M53.07 14.63c.83-.5 1.92-.25 2.43.58.52.84.27 1.93-.56 2.45-.84.5-1.93.26-2.45-.57-.53-.83-.27-1.93.57-2.45z" id="Shape" opacity=".31"/><path d="M51.6 15.52c.84-.52 1.94-.26 2.46.58.53.84.27 1.95-.57 2.47-.86.52-1.97.26-2.5-.58-.5-.85-.25-1.96.6-2.48z" id="Shape" opacity=".33"/><ellipse id="Oval" opacity=".35" cx="51.08" cy="17.95" rx="1.82" ry="1.82"/><path d="M48.65 17.3c.87-.54 2-.27 2.53.6.54.85.28 1.98-.6 2.52-.85.54-2 .27-2.52-.6-.54-.85-.27-2 .6-2.53z" id="Shape" opacity=".37"/><path d="M47.18 18.18c.88-.54 2.02-.27 2.56.6.55.87.28 2.02-.6 2.56-.87.55-2.02.28-2.56-.6-.54-.87-.27-2.02.6-2.56z" id="Shape" opacity=".39"/><path d="M45.7 19.07c.9-.55 2.06-.27 2.6.6.55.9.28 2.05-.6 2.6-.9.54-2.05.27-2.6-.6-.54-.9-.27-2.05.6-2.6z" id="Shape" opacity=".41"/><ellipse id="Oval" opacity=".43" cx="45.25" cy="21.57" rx="1.9" ry="1.9"/><ellipse id="Oval" opacity=".45" cx="43.79" cy="22.48" rx="1.93" ry="1.93"/><path d="M41.3 21.73c.92-.57 2.12-.28 2.68.63.57.9.3 2.1-.62 2.68-.92.57-2.12.28-2.7-.63-.55-.9-.27-2.1.64-2.67z" id="Shape" opacity=".47"/><ellipse id="Oval" opacity=".49" cx="40.87" cy="24.29" rx="1.97" ry="1.97"/><path d="M38.36 23.5c.94-.58 2.16-.3 2.74.65.58.93.3 2.16-.64 2.74-.93.57-2.16.28-2.74-.66-.58-.93-.3-2.16.64-2.74z" id="Shape" opacity=".51"/><ellipse id="Oval" opacity=".53" cx="37.95" cy="26.1" rx="2.01" ry="2.01"/><ellipse id="Oval" opacity=".55" cx="36.5" cy="27" rx="2.03" ry="2.03"/><ellipse id="Oval" opacity=".57" cx="35.04" cy="27.91" rx="2.06" ry="2.06"/><ellipse id="Oval" opacity=".59" cx="33.58" cy="28.82" rx="2.08" ry="2.08"/><ellipse id="Oval" opacity=".61" cx="32.12" cy="29.72" rx="2.1" ry="2.1"/><ellipse id="Oval" opacity=".63" cx="30.66" cy="30.63" rx="2.12" ry="2.12"/><ellipse id="Oval" opacity=".65" cx="29.2" cy="31.53" rx="2.14" ry="2.14"/><ellipse id="Oval" opacity=".67" cx="27.74" cy="32.44" rx="2.17" ry="2.17"/><ellipse id="Oval" opacity=".69" cx="26.28" cy="33.34" rx="2.19" ry="2.19"/><ellipse id="Oval" opacity=".71" cx="24.82" cy="34.25" rx="2.21" ry="2.21"/><ellipse id="Oval" opacity=".73" cx="23.37" cy="35.15" rx="2.23" ry="2.23"/><ellipse id="Oval" opacity=".75" cx="21.91" cy="36.06" rx="2.25" ry="2.25"/><ellipse id="Oval" opacity=".76" cx="20.45" cy="36.96" rx="2.27" ry="2.27"/><ellipse id="Oval" opacity=".78" cx="18.99" cy="37.87" rx="2.29" ry="2.29"/><ellipse id="Oval" opacity=".8" cx="17.53" cy="38.77" rx="2.32" ry="2.32"/><ellipse id="Oval" opacity=".82" cx="16.07" cy="39.68" rx="2.34" ry="2.34"/><ellipse id="Oval" opacity=".84" cx="14.61" cy="40.59" rx="2.36" ry="2.36"/><ellipse id="Oval" opacity=".86" cx="13.15" cy="41.49" rx="2.38" ry="2.38"/><ellipse id="Oval" opacity=".88" cx="11.69" cy="42.4" rx="2.4" ry="2.4"/><ellipse id="Oval" opacity=".9" cx="10.24" cy="43.3" rx="2.42" ry="2.42"/><ellipse id="Oval" opacity=".92" cx="8.78" cy="44.21" rx="2.45" ry="2.45"/><ellipse id="Oval" opacity=".94" cx="7.32" cy="45.11" rx="2.47" ry="2.47"/><ellipse id="Oval" opacity=".96" cx="5.86" cy="46.02" rx="2.49" ry="2.49"/><circle id="Oval" opacity=".98" cx="4.4" cy="46.92" r="2.51"/><ellipse id="Oval" cx="2.94" cy="47.83" rx="2.53" ry="2.53"/></g><g transform="translate(278.08 181.82)" fill="#FFF"><ellipse id="Oval" opacity=".02" cx="43.74" cy="1.97" rx=".95" ry=".95"/><ellipse id="Oval" opacity=".04" cx="42.92" cy="2.73" rx=".96" ry=".96"/><path d="M41.43 2.77c.4-.36 1-.33 1.37.06.37.4.35 1-.05 1.38-.4.38-1.02.35-1.38-.05-.37-.4-.34-1 .06-1.38z" id="Shape" opacity=".06"/><path d="M40.6 3.52c.4-.37 1.02-.34 1.4.06.36.4.33 1.03-.07 1.4-.4.37-1.03.35-1.4-.05-.37-.4-.35-1.03.06-1.4z" id="Shape" opacity=".08"/><ellipse id="Oval" opacity=".1" cx="40.43" cy="5.01" rx="1.01" ry="1.01"/><ellipse id="Oval" opacity=".12" cx="39.61" cy="5.78" rx="1.02" ry="1.02"/><path d="M38.08 5.78c.42-.4 1.07-.36 1.46.06.38.42.36 1.07-.06 1.46-.42.4-1.08.36-1.46-.06-.4-.42-.36-1.07.06-1.46z" id="Shape" opacity=".14"/><path d="M37.24 6.53c.43-.4 1.1-.36 1.48.06.4.42.37 1.08-.06 1.47-.42.4-1.1.37-1.48-.06-.4-.4-.36-1.08.06-1.47z" id="Shape" opacity=".16"/><path d="M36.4 7.28c.44-.4 1.1-.37 1.5.07.4.43.38 1.1-.06 1.5-.43.4-1.1.37-1.5-.07-.4-.43-.37-1.1.07-1.5z" id="Shape" opacity=".18"/><ellipse id="Oval" opacity=".2" cx="36.3" cy="8.82" rx="1.08" ry="1.08"/><ellipse id="Oval" opacity=".22" cx="35.47" cy="9.58" rx="1.09" ry="1.09"/><ellipse id="Oval" opacity=".24" cx="34.64" cy="10.35" rx="1.1" ry="1.1"/><circle id="Oval" opacity=".25" cx="33.82" cy="11.11" r="1.12"/><ellipse id="Oval" opacity=".27" cx="32.99" cy="11.87" rx="1.13" ry="1.13"/><ellipse id="Oval" opacity=".29" cx="32.16" cy="12.63" rx="1.15" ry="1.15"/><ellipse id="Oval" opacity=".31" cx="31.33" cy="13.39" rx="1.16" ry="1.16"/><ellipse id="Oval" opacity=".33" cx="30.51" cy="14.16" rx="1.18" ry="1.18"/><ellipse id="Oval" opacity=".35" cx="29.68" cy="14.92" rx="1.19" ry="1.19"/><ellipse id="Oval" opacity=".37" cx="28.85" cy="15.68" rx="1.2" ry="1.2"/><ellipse id="Oval" opacity=".39" cx="28.02" cy="16.44" rx="1.22" ry="1.22"/><ellipse id="Oval" opacity=".41" cx="27.2" cy="17.21" rx="1.23" ry="1.23"/><ellipse id="Oval" opacity=".43" cx="26.37" cy="17.97" rx="1.25" ry="1.25"/><ellipse id="Oval" opacity=".45" cx="25.54" cy="18.73" rx="1.26" ry="1.26"/><ellipse id="Oval" opacity=".47" cx="24.72" cy="19.49" rx="1.28" ry="1.28"/><ellipse id="Oval" opacity=".49" cx="23.89" cy="20.25" rx="1.29" ry="1.29"/><ellipse id="Oval" opacity=".51" cx="23.06" cy="21.01" rx="1.3" ry="1.3"/><ellipse id="Oval" opacity=".53" cx="22.23" cy="21.78" rx="1.32" ry="1.32"/><ellipse id="Oval" opacity=".55" cx="21.4" cy="22.54" rx="1.33" ry="1.33"/><ellipse id="Oval" opacity=".57" cx="20.58" cy="23.3" rx="1.35" ry="1.35"/><ellipse id="Oval" opacity=".59" cx="19.75" cy="24.06" rx="1.36" ry="1.36"/><ellipse id="Oval" opacity=".61" cx="18.92" cy="24.82" rx="1.38" ry="1.38"/><ellipse id="Oval" opacity=".63" cx="18.1" cy="25.59" rx="1.39" ry="1.39"/><ellipse id="Oval" opacity=".65" cx="17.27" cy="26.35" rx="1.4" ry="1.4"/><ellipse id="Oval" opacity=".67" cx="16.44" cy="27.11" rx="1.42" ry="1.42"/><ellipse id="Oval" opacity=".69" cx="15.61" cy="27.87" rx="1.43" ry="1.43"/><ellipse id="Oval" opacity=".71" cx="14.79" cy="28.63" rx="1.45" ry="1.45"/><circle id="Oval" opacity=".73" cx="13.96" cy="29.4" r="1.46"/><ellipse id="Oval" opacity=".75" cx="13.13" cy="30.16" rx="1.47" ry="1.47"/><ellipse id="Oval" opacity=".76" cx="12.3" cy="30.92" rx="1.49" ry="1.49"/><ellipse id="Oval" opacity=".78" cx="11.48" cy="31.68" rx="1.5" ry="1.5"/><ellipse id="Oval" opacity=".8" cx="10.65" cy="32.44" rx="1.52" ry="1.52"/><ellipse id="Oval" opacity=".82" cx="9.82" cy="33.21" rx="1.53" ry="1.53"/><ellipse id="Oval" opacity=".84" cx="8.99" cy="33.97" rx="1.55" ry="1.55"/><ellipse id="Oval" opacity=".86" cx="8.17" cy="34.73" rx="1.56" ry="1.56"/><circle id="Oval" opacity=".88" cx="7.34" cy="35.49" r="1.57"/><circle id="Oval" opacity=".9" cx="6.51" cy="36.25" r="1.59"/><ellipse id="Oval" opacity=".92" cx="5.69" cy="37.01" rx="1.6" ry="1.6"/><ellipse id="Oval" opacity=".94" cx="4.86" cy="37.78" rx="1.62" ry="1.62"/><ellipse id="Oval" opacity=".96" cx="4.03" cy="38.54" rx="1.63" ry="1.63"/><ellipse id="Oval" opacity=".98" cx="3.2" cy="39.3" rx="1.65" ry="1.65"/><ellipse id="Oval" cx="2.38" cy="40.06" rx="1.66" ry="1.66"/></g><g transform="translate(69.053 72.904)" fill="#FFF"><ellipse id="Oval" opacity=".02" cx="37.03" cy="1.13" rx=".66" ry=".66"/><ellipse id="Oval" opacity=".04" cx="36.31" cy="1.43" rx=".67" ry=".67"/><ellipse id="Oval" opacity=".06" cx="35.59" cy="1.74" rx=".68" ry=".68"/><ellipse id="Oval" opacity=".08" cx="34.88" cy="2.04" rx=".69" ry=".69"/><ellipse id="Oval" opacity=".1" cx="34.16" cy="2.35" rx=".7" ry=".7"/><ellipse id="Oval" opacity=".12" cx="33.44" cy="2.65" rx=".71" ry=".71"/><ellipse id="Oval" opacity=".14" cx="32.73" cy="2.96" rx=".72" ry=".72"/><ellipse id="Oval" opacity=".16" cx="32.01" cy="3.27" rx=".73" ry=".73"/><ellipse id="Oval" opacity=".18" cx="31.29" cy="3.57" rx=".74" ry=".74"/><ellipse id="Oval" opacity=".2" cx="30.57" cy="3.88" rx=".75" ry=".75"/><ellipse id="Oval" opacity=".22" cx="29.86" cy="4.18" rx=".76" ry=".76"/><ellipse id="Oval" opacity=".24" cx="29.14" cy="4.49" rx=".77" ry=".77"/><ellipse id="Oval" opacity=".25" cx="28.42" cy="4.8" rx=".78" ry=".78"/><ellipse id="Oval" opacity=".27" cx="27.7" cy="5.1" rx=".78" ry=".78"/><ellipse id="Oval" opacity=".29" cx="26.99" cy="5.41" rx=".79" ry=".79"/><ellipse id="Oval" opacity=".31" cx="26.27" cy="5.71" rx=".81" ry=".81"/><ellipse id="Oval" opacity=".33" cx="25.55" cy="6.02" rx=".82" ry=".82"/><ellipse id="Oval" opacity=".35" cx="24.83" cy="6.32" rx=".83" ry=".83"/><ellipse id="Oval" opacity=".37" cx="24.12" cy="6.63" rx=".83" ry=".83"/><ellipse id="Oval" opacity=".39" cx="23.4" cy="6.94" rx=".84" ry=".84"/><ellipse id="Oval" opacity=".41" cx="22.68" cy="7.24" rx=".85" ry=".85"/><ellipse id="Oval" opacity=".43" cx="21.96" cy="7.55" rx=".86" ry=".86"/><ellipse id="Oval" opacity=".45" cx="21.25" cy="7.85" rx=".87" ry=".87"/><ellipse id="Oval" opacity=".47" cx="20.53" cy="8.16" rx=".88" ry=".88"/><ellipse id="Oval" opacity=".49" cx="19.81" cy="8.47" rx=".89" ry=".89"/><ellipse id="Oval" opacity=".51" cx="19.09" cy="8.77" rx=".9" ry=".9"/><ellipse id="Oval" opacity=".53" cx="18.38" cy="9.08" rx=".91" ry=".91"/><ellipse id="Oval" opacity=".55" cx="17.66" cy="9.38" rx=".92" ry=".92"/><ellipse id="Oval" opacity=".57" cx="16.94" cy="9.69" rx=".93" ry=".93"/><ellipse id="Oval" opacity=".59" cx="16.22" cy="10" rx=".94" ry=".94"/><ellipse id="Oval" opacity=".61" cx="15.51" cy="10.3" rx=".95" ry=".95"/><ellipse id="Oval" opacity=".63" cx="14.79" cy="10.61" rx=".96" ry=".96"/><ellipse id="Oval" opacity=".65" cx="14.07" cy="10.91" rx=".97" ry=".97"/><ellipse id="Oval" opacity=".67" cx="13.35" cy="11.22" rx=".98" ry=".98"/><ellipse id="Oval" opacity=".69" cx="12.64" cy="11.53" rx=".99" ry=".99"/><ellipse id="Oval" opacity=".71" cx="11.92" cy="11.83" rx="1" ry="1"/><ellipse id="Oval" opacity=".73" cx="11.2" cy="12.14" rx="1.01" ry="1.01"/><ellipse id="Oval" opacity=".75" cx="10.48" cy="12.44" rx="1.02" ry="1.02"/><ellipse id="Oval" opacity=".76" cx="9.77" cy="12.75" rx="1.03" ry="1.03"/><ellipse id="Oval" opacity=".78" cx="9.05" cy="13.06" rx="1.04" ry="1.04"/><ellipse id="Oval" opacity=".8" cx="8.33" cy="13.36" rx="1.05" ry="1.05"/><ellipse id="Oval" opacity=".82" cx="7.61" cy="13.67" rx="1.06" ry="1.06"/><ellipse id="Oval" opacity=".84" cx="6.9" cy="13.97" rx="1.07" ry="1.07"/><ellipse id="Oval" opacity=".86" cx="6.18" cy="14.28" rx="1.08" ry="1.08"/><ellipse id="Oval" opacity=".88" cx="5.46" cy="14.58" rx="1.09" ry="1.09"/><ellipse id="Oval" opacity=".9" cx="4.75" cy="14.89" rx="1.1" ry="1.1"/><ellipse id="Oval" opacity=".92" cx="4.03" cy="15.2" rx="1.11" ry="1.11"/><ellipse id="Oval" opacity=".94" cx="3.31" cy="15.5" rx="1.12" ry="1.12"/><ellipse id="Oval" opacity=".96" cx="2.59" cy="15.81" rx="1.13" ry="1.13"/><ellipse id="Oval" opacity=".98" cx="1.88" cy="16.11" rx="1.14" ry="1.14"/><ellipse id="Oval" cx="1.16" cy="16.42" rx="1.15" ry="1.15"/></g></g></g></g><g id="planet-copy-2-Clipped" transform="translate(0 -60)"><mask id="mask-31" fill="#fff"><use xlink:href="#path-30"/></mask><g id="planet-copy-2" opacity=".63" mask="url(#mask-31)"><g transform="translate(678.603 347.363)" id="Group"><ellipse id="Oval" stroke="#FFF" stroke-width="4" fill="#00ACAF" opacity=".2" cx="55.56" cy="54.01" rx="40.04" ry="40.04"/><ellipse id="Oval" stroke="#FFF" stroke-width="4" fill="#00ACAF" opacity=".2" cx="53.77" cy="49.41" rx="33.36" ry="33.36"/><ellipse id="Oval" fill="url(#linearGradient-32)" cx="86.36" cy="11.18" rx="2.31" ry="2.31"/><ellipse id="Oval" fill="url(#linearGradient-33)" cx="68.07" cy="7.07" rx="6.24" ry="6.24"/><ellipse id="Oval" fill="url(#linearGradient-34)" cx="77.55" cy="24.94" rx="11.32" ry="11.32"/><circle id="Oval" stroke="#FFF" stroke-width="4" fill="#00ACAF" opacity=".2" cx="56.07" cy="53.24" r="35.15"/><ellipse id="Oval" fill="url(#linearGradient-35)" cx="27.04" cy="90.69" rx="1.92" ry="1.92"/><ellipse id="Oval" fill="url(#linearGradient-36)" cx="80.22" cy="4.53" rx="1.54" ry="1.54"/><g fill="#FFF"><g transform="translate(83.957 43.614)"><path d="M21.02 1.25c.2-.1.43-.06.55.13.1.18.05.43-.13.54-.2.12-.43.06-.55-.12-.12-.2-.06-.43.12-.55z" id="Shape" opacity=".02"/><ellipse id="Oval" opacity=".04" cx="20.83" cy="1.83" rx=".4" ry=".4"/><ellipse id="Oval" opacity=".06" cx="20.43" cy="2.08" rx=".41" ry=".41"/><ellipse id="Oval" opacity=".08" cx="20.03" cy="2.33" rx=".41" ry=".41"/><ellipse id="Oval" opacity=".1" cx="19.63" cy="2.58" rx=".42" ry=".42"/><ellipse id="Oval" opacity=".12" cx="19.23" cy="2.82" rx=".43" ry=".43"/><ellipse id="Oval" opacity=".14" cx="18.84" cy="3.07" rx=".43" ry=".43"/><ellipse id="Oval" opacity=".16" cx="18.44" cy="3.32" rx=".44" ry=".44"/><ellipse id="Oval" opacity=".18" cx="18.04" cy="3.57" rx=".44" ry=".44"/><ellipse id="Oval" opacity=".2" cx="17.64" cy="3.82" rx=".45" ry=".45"/><ellipse id="Oval" opacity=".22" cx="17.24" cy="4.06" rx=".45" ry=".45"/><ellipse id="Oval" opacity=".24" cx="16.84" cy="4.31" rx=".46" ry=".46"/><ellipse id="Oval" opacity=".25" cx="16.44" cy="4.56" rx=".47" ry=".47"/><ellipse id="Oval" opacity=".27" cx="16.04" cy="4.81" rx=".47" ry=".47"/><ellipse id="Oval" opacity=".29" cx="15.64" cy="5.05" rx=".48" ry=".48"/><ellipse id="Oval" opacity=".31" cx="15.24" cy="5.3" rx=".49" ry=".49"/><ellipse id="Oval" opacity=".33" cx="14.84" cy="5.55" rx=".49" ry=".49"/><ellipse id="Oval" opacity=".35" cx="14.44" cy="5.8" rx=".5" ry=".5"/><circle id="Oval" opacity=".37" cx="14.05" cy="6.04" r=".5"/><ellipse id="Oval" opacity=".39" cx="13.65" cy="6.29" rx=".51" ry=".51"/><ellipse id="Oval" opacity=".41" cx="13.25" cy="6.54" rx=".51" ry=".51"/><circle id="Oval" opacity=".43" cx="12.85" cy="6.79" r=".52"/><ellipse id="Oval" opacity=".45" cx="12.45" cy="7.04" rx=".53" ry=".53"/><ellipse id="Oval" opacity=".47" cx="12.05" cy="7.28" rx=".53" ry=".53"/><ellipse id="Oval" opacity=".49" cx="11.65" cy="7.53" rx=".54" ry=".54"/><ellipse id="Oval" opacity=".51" cx="11.25" cy="7.78" rx=".55" ry=".55"/><ellipse id="Oval" opacity=".53" cx="10.85" cy="8.03" rx=".55" ry=".55"/><ellipse id="Oval" opacity=".55" cx="10.45" cy="8.27" rx=".56" ry=".56"/><ellipse id="Oval" opacity=".57" cx="10.05" cy="8.52" rx=".56" ry=".56"/><ellipse id="Oval" opacity=".59" cx="9.65" cy="8.77" rx=".57" ry=".57"/><ellipse id="Oval" opacity=".61" cx="9.25" cy="9.02" rx=".57" ry=".57"/><ellipse id="Oval" opacity=".63" cx="8.86" cy="9.27" rx=".58" ry=".58"/><ellipse id="Oval" opacity=".65" cx="8.46" cy="9.51" rx=".59" ry=".59"/><ellipse id="Oval" opacity=".67" cx="8.06" cy="9.76" rx=".59" ry=".59"/><ellipse id="Oval" opacity=".69" cx="7.66" cy="10.01" rx=".6" ry=".6"/><ellipse id="Oval" opacity=".71" cx="7.26" cy="10.26" rx=".6" ry=".6"/><ellipse id="Oval" opacity=".73" cx="6.86" cy="10.5" rx=".61" ry=".61"/><ellipse id="Oval" opacity=".75" cx="6.46" cy="10.75" rx=".62" ry=".62"/><ellipse id="Oval" opacity=".76" cx="6.06" cy="11" rx=".62" ry=".62"/><ellipse id="Oval" opacity=".78" cx="5.66" cy="11.25" rx=".63" ry=".63"/><ellipse id="Oval" opacity=".8" cx="5.26" cy="11.5" rx=".63" ry=".63"/><ellipse id="Oval" opacity=".82" cx="4.86" cy="11.74" rx=".64" ry=".64"/><ellipse id="Oval" opacity=".84" cx="4.46" cy="11.99" rx=".65" ry=".65"/><ellipse id="Oval" opacity=".86" cx="4.07" cy="12.24" rx=".65" ry=".65"/><ellipse id="Oval" opacity=".88" cx="3.67" cy="12.49" rx=".66" ry=".66"/><ellipse id="Oval" opacity=".9" cx="3.27" cy="12.73" rx=".66" ry=".66"/><ellipse id="Oval" opacity=".92" cx="2.87" cy="12.98" rx=".67" ry=".67"/><ellipse id="Oval" opacity=".94" cx="2.47" cy="13.23" rx=".67" ry=".67"/><ellipse id="Oval" opacity=".96" cx="2.07" cy="13.48" rx=".68" ry=".68"/><ellipse id="Oval" opacity=".98" cx="1.67" cy="13.73" rx=".69" ry=".69"/><ellipse id="Oval" cx="1.27" cy="13.97" rx=".69" ry=".69"/></g><g id="Oval" transform="translate(93.77 45.795)"><ellipse opacity=".02" cx="12.09" cy=".76" rx=".26" ry=".26"/><ellipse opacity=".04" cx="11.87" cy=".97" rx=".26" ry=".26"/><ellipse opacity=".06" cx="11.64" cy="1.18" rx=".27" ry=".27"/><ellipse opacity=".08" cx="11.41" cy="1.38" rx=".27" ry=".27"/><ellipse opacity=".1" cx="11.19" cy="1.59" rx=".27" ry=".27"/><ellipse opacity=".12" cx="10.96" cy="1.8" rx=".28" ry=".28"/><ellipse opacity=".14" cx="10.73" cy="2.01" rx=".28" ry=".28"/><ellipse opacity=".16" cx="10.51" cy="2.22" rx=".29" ry=".29"/><ellipse opacity=".18" cx="10.28" cy="2.43" rx=".29" ry=".29"/><ellipse opacity=".2" cx="10.06" cy="2.63" rx=".29" ry=".29"/><ellipse opacity=".22" cx="9.83" cy="2.84" rx=".3" ry=".3"/><ellipse opacity=".24" cx="9.6" cy="3.05" rx=".3" ry=".3"/><ellipse opacity=".25" cx="9.38" cy="3.26" rx=".31" ry=".31"/><ellipse opacity=".27" cx="9.15" cy="3.47" rx=".31" ry=".31"/><ellipse opacity=".29" cx="8.92" cy="3.68" rx=".31" ry=".31"/><ellipse opacity=".31" cx="8.7" cy="3.89" rx=".32" ry=".32"/><ellipse opacity=".33" cx="8.47" cy="4.09" rx=".32" ry=".32"/><ellipse opacity=".35" cx="8.24" cy="4.3" rx=".33" ry=".33"/><ellipse opacity=".37" cx="8.02" cy="4.51" rx=".33" ry=".33"/><ellipse opacity=".39" cx="7.79" cy="4.72" rx=".33" ry=".33"/><ellipse opacity=".41" cx="7.56" cy="4.93" rx=".34" ry=".34"/><ellipse opacity=".43" cx="7.34" cy="5.14" rx=".34" ry=".34"/><ellipse opacity=".45" cx="7.11" cy="5.34" rx=".35" ry=".35"/><ellipse opacity=".47" cx="6.89" cy="5.55" rx=".35" ry=".35"/><ellipse opacity=".49" cx="6.66" cy="5.76" rx=".35" ry=".35"/><ellipse opacity=".51" cx="6.43" cy="5.97" rx=".36" ry=".36"/><ellipse opacity=".53" cx="6.21" cy="6.18" rx=".36" ry=".36"/><ellipse opacity=".55" cx="5.98" cy="6.39" rx=".36" ry=".36"/><ellipse opacity=".57" cx="5.75" cy="6.6" rx=".37" ry=".37"/><ellipse opacity=".59" cx="5.53" cy="6.8" rx=".37" ry=".37"/><ellipse opacity=".61" cx="5.3" cy="7.01" rx=".38" ry=".38"/><ellipse opacity=".63" cx="5.07" cy="7.22" rx=".38" ry=".38"/><ellipse opacity=".65" cx="4.85" cy="7.43" rx=".38" ry=".38"/><ellipse opacity=".67" cx="4.62" cy="7.64" rx=".39" ry=".39"/><ellipse opacity=".69" cx="4.4" cy="7.85" rx=".39" ry=".39"/><ellipse opacity=".71" cx="4.17" cy="8.06" rx=".4" ry=".4"/><ellipse opacity=".73" cx="3.94" cy="8.26" rx=".4" ry=".4"/><ellipse opacity=".75" cx="3.72" cy="8.47" rx=".4" ry=".4"/><ellipse opacity=".76" cx="3.49" cy="8.68" rx=".41" ry=".41"/><ellipse opacity=".78" cx="3.26" cy="8.89" rx=".41" ry=".41"/><ellipse opacity=".8" cx="3.04" cy="9.1" rx=".42" ry=".42"/><ellipse opacity=".82" cx="2.81" cy="9.31" rx=".42" ry=".42"/><ellipse opacity=".84" cx="2.58" cy="9.51" rx=".42" ry=".42"/><ellipse opacity=".86" cx="2.36" cy="9.72" rx=".43" ry=".43"/><ellipse opacity=".88" cx="2.13" cy="9.93" rx=".43" ry=".43"/><ellipse opacity=".9" cx="1.9" cy="10.14" rx=".44" ry=".44"/><ellipse opacity=".92" cx="1.68" cy="10.35" rx=".44" ry=".44"/><ellipse opacity=".94" cx="1.45" cy="10.56" rx=".44" ry=".44"/><ellipse opacity=".96" cx="1.23" cy="10.77" rx=".45" ry=".45"/><ellipse opacity=".98" cx="1" cy="10.97" rx=".45" ry=".45"/><ellipse cx=".77" cy="11.18" rx=".45" ry=".45"/></g></g><g transform="translate(10.903 27.26)" id="Oval" fill="#FFF"><ellipse opacity=".02" cx="11.13" cy="1.02" rx=".18" ry=".18"/><ellipse opacity=".04" cx="10.93" cy="1.1" rx=".18" ry=".18"/><ellipse opacity=".06" cx="10.73" cy="1.19" rx=".19" ry=".19"/><ellipse opacity=".08" cx="10.54" cy="1.27" rx=".19" ry=".19"/><ellipse opacity=".1" cx="10.34" cy="1.36" rx=".19" ry=".19"/><ellipse opacity=".12" cx="10.14" cy="1.44" rx=".19" ry=".19"/><ellipse opacity=".14" cx="9.95" cy="1.52" rx=".2" ry=".2"/><ellipse opacity=".16" cx="9.75" cy="1.61" rx=".2" ry=".2"/><ellipse opacity=".18" cx="9.55" cy="1.69" rx=".2" ry=".2"/><ellipse opacity=".2" cx="9.36" cy="1.77" rx=".2" ry=".2"/><ellipse opacity=".22" cx="9.16" cy="1.86" rx=".21" ry=".21"/><ellipse opacity=".24" cx="8.97" cy="1.94" rx=".21" ry=".21"/><ellipse opacity=".25" cx="8.77" cy="2.02" rx=".21" ry=".21"/><ellipse opacity=".27" cx="8.57" cy="2.11" rx=".21" ry=".21"/><ellipse opacity=".29" cx="8.38" cy="2.19" rx=".22" ry=".22"/><ellipse opacity=".31" cx="8.18" cy="2.28" rx=".22" ry=".22"/><ellipse opacity=".33" cx="7.98" cy="2.36" rx=".22" ry=".22"/><ellipse opacity=".35" cx="7.79" cy="2.44" rx=".23" ry=".23"/><ellipse opacity=".37" cx="7.59" cy="2.53" rx=".23" ry=".23"/><ellipse opacity=".39" cx="7.4" cy="2.61" rx=".23" ry=".23"/><ellipse opacity=".41" cx="7.2" cy="2.7" rx=".23" ry=".23"/><ellipse opacity=".43" cx="7" cy="2.78" rx=".24" ry=".24"/><ellipse opacity=".45" cx="6.81" cy="2.86" rx=".24" ry=".24"/><ellipse opacity=".47" cx="6.61" cy="2.95" rx=".24" ry=".24"/><ellipse opacity=".49" cx="6.41" cy="3.03" rx=".25" ry=".25"/><ellipse opacity=".51" cx="6.22" cy="3.11" rx=".25" ry=".25"/><ellipse opacity=".53" cx="6.02" cy="3.2" rx=".25" ry=".25"/><ellipse opacity=".55" cx="5.82" cy="3.28" rx=".25" ry=".25"/><ellipse opacity=".57" cx="5.63" cy="3.36" rx=".26" ry=".26"/><ellipse opacity=".59" cx="5.43" cy="3.45" rx=".26" ry=".26"/><ellipse opacity=".61" cx="5.24" cy="3.53" rx=".26" ry=".26"/><ellipse opacity=".63" cx="5.04" cy="3.62" rx=".26" ry=".26"/><ellipse opacity=".65" cx="4.84" cy="3.7" rx=".27" ry=".27"/><ellipse opacity=".67" cx="4.65" cy="3.78" rx=".27" ry=".27"/><ellipse opacity=".69" cx="4.45" cy="3.87" rx=".27" ry=".27"/><ellipse opacity=".71" cx="4.25" cy="3.95" rx=".27" ry=".27"/><ellipse opacity=".73" cx="4.06" cy="4.03" rx=".28" ry=".28"/><ellipse opacity=".75" cx="3.86" cy="4.12" rx=".28" ry=".28"/><ellipse opacity=".76" cx="3.66" cy="4.2" rx=".28" ry=".28"/><ellipse opacity=".78" cx="3.47" cy="4.29" rx=".28" ry=".28"/><ellipse opacity=".8" cx="3.27" cy="4.37" rx=".29" ry=".29"/><ellipse opacity=".82" cx="3.08" cy="4.45" rx=".29" ry=".29"/><ellipse opacity=".84" cx="2.88" cy="4.54" rx=".29" ry=".29"/><ellipse opacity=".86" cx="2.68" cy="4.62" rx=".3" ry=".3"/><ellipse opacity=".88" cx="2.49" cy="4.7" rx=".3" ry=".3"/><ellipse opacity=".9" cx="2.29" cy="4.79" rx=".3" ry=".3"/><ellipse opacity=".92" cx="2.09" cy="4.87" rx=".3" ry=".3"/><ellipse opacity=".94" cx="1.9" cy="4.95" rx=".31" ry=".31"/><ellipse opacity=".96" cx="1.7" cy="5.04" rx=".31" ry=".31"/><ellipse opacity=".98" cx="1.51" cy="5.12" rx=".31" ry=".31"/><ellipse cx="1.31" cy="5.21" rx=".32" ry=".32"/></g><path d="M53.76 18.08c-13.8 0-25.47 9.16-29.25 21.73H14.4c-1.07 0-1.93.87-1.93 1.93s.86 1.92 1.92 1.92H33.8c1.06 0 1.92.85 1.92 1.9 0 1.07-.86 1.93-1.92 1.93H9.28c-1.06 0-1.92.86-1.92 1.92s.86 1.9 1.92 1.9h14.05C24.7 66.94 37.8 79.2 53.76 79.2c16.88 0 30.55-13.68 30.55-30.55S70.64 18.08 53.77 18.08z" id="Shape" fill="url(#linearGradient-37)"/><path d="M14.9 40.83h10.12C28.8 28.26 40.47 19.1 54.27 19.1c11.77 0 22 6.66 27.1 16.4-4.92-10.3-15.43-17.42-27.6-17.42-13.8 0-25.48 9.16-29.26 21.73H14.4c-1.07 0-1.93.87-1.93 1.93 0 .5.2.98.54 1.33l-.02-.3c0-1.07.86-1.93 1.92-1.93zM9.8 48.5H34.3c1.07 0 1.93-.86 1.93-1.9 0-.53-.2-1-.54-1.35.03.1.04.2.04.3 0 1.07-.86 1.93-1.92 1.93H9.28c-1.06 0-1.92.86-1.92 1.92 0 .5.2.98.54 1.33l-.03-.3c0-1.07.86-1.93 1.92-1.93z" id="Shape" fill="#FFF282" opacity=".5"/><ellipse id="Oval" fill="#F4A9C6" cx="67.63" cy="58.98" rx="2.76" ry="2.91"/><ellipse id="Oval" fill="#F4A9C6" cx="48.22" cy="71.27" rx="1.59" ry="1.5"/><ellipse id="Oval" fill="#F4A9C6" cx="74.16" cy="43.21" rx="1.69" ry="2.15"/><ellipse id="Oval" fill="#F4A9C6" cx="65.91" cy="39.28" rx="4.95" ry="5.69"/><ellipse id="Oval" fill="#F4A9C6" opacity=".5" cx="52.49" cy="44.76" rx="4.02" ry="4.05"/><ellipse id="Oval" fill="#F4A9C6" cx="57.31" cy="56.63" rx="3.58" ry="3.68"/><ellipse id="Oval" fill="#F4A9C6" opacity=".2" transform="rotate(-15.237 29.89 56.767)" cx="29.89" cy="56.77" rx="2.8" ry="3.68"/><ellipse id="Oval" fill="#F4A9C6" opacity=".2" transform="rotate(26.532 30.142 37.53)" cx="30.14" cy="37.53" rx="1.81" ry="3.08"/><ellipse id="Oval" fill="#F4A9C6" opacity=".4" transform="rotate(-75.812 59.787 21.927)" cx="59.79" cy="21.93" rx="1.81" ry="3.08"/><path d="M67.28 22.22c4.34 4.94 7.1 11.32 7.4 18.33 1.17.16 2.08 1.4 2.08 2.92 0 1.63-1.04 2.95-2.33 2.95h-.04c-.55 3.6-1.73 6.97-3.43 10.03.7.7 1.1 1.68 1.1 2.77 0 2.13-1.62 3.86-3.64 3.86-.7 0-1.36-.2-1.9-.57-4.15 4.37-9.58 7.47-15.68 8.72 0 1.45-1.26 2.63-2.8 2.63-1.32 0-2.42-.87-2.7-2.04l-.5.02c-5.17 0-10.04-1.32-14.3-3.64 5.48 6.2 13.5 10.14 22.43 10.14 16.5 0 29.87-13.37 29.87-29.87 0-11.3-6.3-21.16-15.57-26.23z" id="Shape" fill="#F4A9C6"/><path d="M82.24 47.06C81.07 31.76 72.42 25.8 71 25c4.32 4.92 7.05 11.26 7.37 18.24 1.15.16 2.05 1.4 2.05 2.9 0 1.62-1.03 2.94-2.3 2.94h-.05c-.54 3.57-1.7 6.93-3.4 9.97.68.7 1.1 1.68 1.1 2.76 0 2.13-1.62 3.85-3.63 3.85-.7 0-1.35-.2-1.9-.57-4.1 4.33-9.5 7.42-15.6 8.66 0 1.44-1.23 2.62-2.76 2.62-1.32 0-2.4-.87-2.7-2.03h-.48c-5 0-9.73-1.23-13.87-3.42 4.95 3.68 11.07 5.86 17.7 5.86 16.4 0 29.7-13.3 29.7-29.7z" id="Shape" fill="#FFF282" opacity=".8"/><ellipse id="Oval" fill="#F4A9C6" cx="66.82" cy="49.41" rx=".9" ry=".9"/><ellipse id="Oval" fill="#F4A9C6" opacity=".4" cx="48.85" cy="48.77" rx=".9" ry=".9"/><ellipse id="Oval" fill="#F4A9C6" opacity=".2" cx="50.58" cy="24.09" rx=".9" ry=".9"/><ellipse id="Oval" fill="url(#linearGradient-38)" opacity=".3" cx="35.83" cy="63.85" rx=".9" ry=".9"/><ellipse id="Oval" fill="#F4A9C6" cx="65.61" cy="30.26" rx="1.41" ry="1.41"/><ellipse id="Oval" fill="#F4A9C6" opacity=".4" cx="45.29" cy="30.83" rx="1.41" ry="1.41"/><ellipse id="Oval" fill="#F4A9C6" opacity=".4" transform="rotate(-39.465 31.946 51.49)" cx="31.95" cy="51.49" rx=".99" ry="1.41"/><ellipse id="Oval" fill="#F4A9C6" cx="50.68" cy="64.95" rx="1.23" ry="1.23"/><ellipse id="Oval" fill="#F4A9C6" cx="61.89" cy="62.19" rx="1" ry="1"/><path d="M80.57 32.1c8.88-.9 14.96.14 16.07 3.28 2.17 6.12-15.4 17.93-39.22 26.4C33.6 70.22 12.52 72.12 10.34 66 9.12 62.6 14.1 57.4 22.86 52 8.84 59.6.43 67.33 2.14 72.14c2.6 7.36 28 5.08 56.7-5.1 28.7-10.2 49.85-24.43 47.23-31.8-1.58-4.46-11.52-5.38-25.5-3.15z" id="Shape" fill="#C5D97F" opacity=".5"/><path d="M80.53 31.98c8.72-1.3 14.6-.9 15.46 1.56 1.7 4.8-16.25 15.55-40.08 24C32.1 66.02 11.4 69 9.7 64.2c-.97-2.7 4.23-7.23 13.16-12.2C8.66 59.1-.07 65.92 1.26 69.68c2.06 5.8 27 2.22 55.7-7.97 28.7-10.18 50.3-23.12 48.25-28.9-1.24-3.5-10.88-3.58-24.67-.82z" id="Shape" fill="#C5D97F" opacity=".3"/><path d="M80.5 31.94c8.68-1.47 14.47-1.27 15.26.95C97.3 37.2 79.22 47.57 55.4 56.03 31.55 64.5 11 67.84 9.45 63.52c-.86-2.42 4.4-6.73 13.4-11.54C8.6 58.9-.24 65.4.96 68.8c1.85 5.22 26.6 1.2 55.32-9 28.7-10.18 50.46-22.67 48.6-27.88-1.1-3.16-10.64-2.92-24.37.02z" id="Shape" fill="#E2388C" opacity=".5"/><g transform="translate(70.873 77.415)" id="Oval"><ellipse fill="url(#linearGradient-39)" opacity=".2" cx="5.33" cy="5.19" rx="4.7" ry="4.7"/><ellipse fill="url(#linearGradient-40)" cx="5.44" cy="5.14" rx="2.4" ry="2.4"/></g></g></g></g><g id="planet-copy-3-Clipped" transform="translate(0 -60)"><mask id="mask-42" fill="#fff"><use xlink:href="#path-41"/></mask><g id="planet-copy-3" opacity=".57" mask="url(#mask-42)"><g transform="translate(1115 191)" id="Group"><circle id="Oval" fill="url(#linearGradient-43)" cx="91.36" cy="35.2" r="17.66"/><g transform="translate(193.128 182.804)" id="Oval" fill="#FFF"><ellipse cx="81.86" cy="43.51" rx=".96" ry=".96"/><ellipse cx=".81" cy="45.42" rx=".78" ry=".78"/><ellipse cx="64.65" cy="1.23" rx=".54" ry=".54"/><ellipse cx="55.88" cy="24.21" rx=".61" ry=".61"/></g><circle id="Oval" fill="#FFF" cx="165.92" cy="1.29" r=".61"/><circle id="Oval" fill="url(#linearGradient-44)" opacity=".2" cx="210.51" cy="231.96" r="13.32"/><circle id="Oval" fill="url(#linearGradient-45)" cx="210.8" cy="231.81" r="6.8"/><circle id="Oval" fill="url(#linearGradient-46)" cx="240.48" cy="253.08" r="6.53"/><circle id="Oval" fill="url(#linearGradient-47)" cx="82.61" cy="67.68" r="32.05"/><circle id="Oval" stroke="#FFF" stroke-width="4" fill="#00ACAF" opacity=".2" cx="141.7" cy="142.91" r="113.36"/><circle id="Oval" stroke="#FFF" stroke-width="4" fill="#00ACAF" opacity=".2" cx="153.28" cy="157.21" r="94.46"/><circle id="Oval" fill="url(#linearGradient-48)" cx="58.06" cy="27.24" r="5.45"/><g transform="translate(0 16.177)" id="Oval" fill="#FFF"><circle cx="1.63" cy="4.4" r="1.22"/><ellipse cx="104.92" cy="1.96" rx=".99" ry=".99"/><circle cx="23.57" cy="58.28" r=".68"/><circle cx="34.75" cy="28.99" r=".77"/></g><path d="M143.84 67.78c45.38 0 82.16 36.78 82.16 82.16 0 45.38-36.78 82.16-82.16 82.16-45.38 0-82.17-36.78-82.17-82.16 0-2.03.08-4.04.23-6.03h35.83c2.24 0 4.07-1.8 4.07-4.06 0-2.25-1.83-4.07-4.07-4.07l-54.03-.1c-2.24 0-4.07-1.8-4.07-4.07 0-2.24 1.83-4.07 4.07-4.07h54.84c2.25 0 4.07-1.82 4.07-4.07s-1.8-4.07-4.06-4.07H54.02c-2.25 0-4.07-1.83-4.07-4.08s1.82-4.08 4.07-4.08h17.33c13.83-25.86 41.1-43.46 72.5-43.46zm0-9.78c-16.96 0-33.53 4.66-47.93 13.47-12.27 7.52-22.62 17.82-30.2 30H54.03c-7.63 0-13.85 6.2-13.85 13.84 0 .98.1 1.93.3 2.84-6.08 1.46-10.6 6.94-10.6 13.46 0 7.64 6.2 13.85 13.83 13.85H52c-.06 1.5-.1 3-.1 4.48 0 12.4 2.44 24.45 7.23 35.8 4.63 10.94 11.26 20.78 19.7 29.22 8.44 8.44 18.27 15.06 29.22 19.7 11.34 4.8 23.38 7.22 35.8 7.22 12.4 0 24.44-2.43 35.78-7.23 10.95-4.63 20.78-11.25 29.22-19.7 8.44-8.43 15.07-18.26 19.7-29.2 4.8-11.35 7.23-23.4 7.23-35.8 0-12.4-2.43-24.45-7.23-35.8-4.63-10.94-11.26-20.77-19.7-29.2-8.44-8.45-18.27-15.08-29.22-19.7-11.34-4.8-23.38-7.24-35.8-7.24z" id="Shape" fill="#F07E26" opacity=".5"/><path d="M149.27 71.4c-31.4 0-58.66 17.6-72.5 43.46H59.46c-2.25 0-4.07 1.83-4.07 4.08 0 2.24 1.82 4.07 4.07 4.07h44.52c2.25 0 4.07 1.83 4.07 4.08s-1.82 4.07-4.07 4.07H49.14c-2.25 0-4.08 1.82-4.08 4.08 0 2.25 1.83 4.07 4.08 4.07l54.02.1c2.25 0 4.07 1.8 4.07 4.06 0 2.25-1.82 4.07-4.07 4.07H67.33c-.15 2-.22 4-.22 6.03 0 45.38 36.8 82.16 82.17 82.16 45.38 0 82.16-36.78 82.16-82.16 0-45.38-36.78-82.16-82.16-82.16z" id="Shape" fill="#682280" opacity=".5"/><path d="M143.84 67.78c-31.4 0-58.66 17.6-72.5 43.46H54.03c-2.25 0-4.07 1.83-4.07 4.08s1.82 4.07 4.07 4.07h44.52c2.25 0 4.07 1.8 4.07 4.06 0 2.25-1.8 4.08-4.06 4.08H43.7c-2.24 0-4.07 1.82-4.07 4.07 0 2.26 1.83 4.08 4.07 4.08l54.03.1c2.24 0 4.07 1.8 4.07 4.06 0 2.25-1.83 4.07-4.07 4.07H61.9c-.15 2-.23 4-.23 6.04 0 45.38 36.8 82.16 82.17 82.16 45.38 0 82.16-36.78 82.16-82.16 0-45.38-36.78-82.16-82.16-82.16z" id="Shape" fill="url(#linearGradient-49)"/><path d="M80.3 152.65c0-2.02.08-4.03.22-6.03h35.83c2.25 0 4.07-1.82 4.07-4.07s-1.82-4.07-4.07-4.07l-15.02-.02c.06.27.1.55.1.83 0 2.24-1.83 4.07-4.08 4.07H61.52c-.14 2-.22 4-.22 6.02 0 43.9 34.46 79.78 77.82 82.04-34-10.06-58.82-41.52-58.82-78.8z" id="Shape" fill="url(#linearGradient-50)"/><path d="M64.2 151.02c0-2.02.07-4.03.22-6.03h35.82c2.25 0 4.08-1.83 4.08-4.08 0-.3-.03-.57-.1-.84l15.03.03c.2 0 .38.03.57.05-.74-1-1.93-1.67-3.3-1.67l-15-.02c.05.27.08.55.08.83 0 2.24-1.82 4.07-4.07 4.07H61.7c-.14 2-.22 4-.22 6.02 0 30.5 16.6 57.1 41.28 71.27-23.16-14.53-38.56-40.3-38.56-69.65z" id="Shape" fill="url(#linearGradient-51)"/><path d="M62.33 130.8h54.84c2.25 0 4.07-1.83 4.07-4.08s-1.82-4.07-4.07-4.07h-15.02c.06.26.1.53.1.8 0 2.26-1.84 4.08-4.1 4.08H43.34c-2.25 0-4.07 1.82-4.07 4.07s1.82 4.08 4.07 4.08l15.02.02c-.06-.27-.1-.55-.1-.84 0-2.25 1.84-4.07 4.08-4.07z" id="Shape" fill="url(#linearGradient-52)"/><path d="M44.96 129.16H99.8c2.24 0 4.07-1.82 4.07-4.07 0-.3-.03-.56-.1-.83h15.03c.7 0 1.37.18 1.94.5-.7-1.26-2.03-2.12-3.57-2.12h-15.02c.06.26.1.53.1.8 0 2.26-1.84 4.08-4.1 4.08H43.34c-2.25 0-4.07 1.83-4.07 4.07 0 1.55.86 2.9 2.12 3.58-.3-.58-.5-1.24-.5-1.95 0-2.25 1.83-4.07 4.08-4.07z" id="Shape" fill="url(#linearGradient-53)"/><path d="M72.47 114.5H89.8c13.83-25.86 41.1-43.47 72.48-43.47 1.46 0 2.9.04 4.35.12-7.4-2.2-15.24-3.37-23.35-3.37-31.38 0-58.66 17.6-72.5 43.46H53.5c-2.26 0-4.1 1.83-4.1 4.08s1.84 4.07 4.1 4.07h15c-.06-.27-.1-.55-.1-.82 0-2.26 1.84-4.08 4.1-4.08z" id="Shape" fill="url(#linearGradient-54)"/><path d="M54.9 113.42h17.34c13.83-25.87 41.1-43.47 72.5-43.47 4.72 0 9.34.4 13.85 1.17 1.22-.06 2.45-.1 3.68-.1 1.46 0 2.9.05 4.35.13-7.4-2.2-15.24-3.37-23.35-3.37-31.38 0-58.66 17.6-72.5 43.46H53.47c-2.24 0-4.07 1.83-4.07 4.08 0 1.3.62 2.48 1.58 3.22-.1-.34-.14-.7-.14-1.05 0-2.26 1.83-4.08 4.07-4.08z" id="Shape" fill="url(#linearGradient-55)"/><path d="M108.56 82.56c5.76-.14 11.5-.36 17.25-.66 5.3-.27 10.42-.6 15.46-2.35 4.38-1.53 8.48-3.68 12.6-5.8 2.8-1.42 5.65-2.73 8.57-3.86-5.98-1.4-12.2-2.12-18.6-2.12-17.56 0-33.83 5.5-47.2 14.9 3.98 0 7.96-.03 11.93-.12z" id="Shape" fill="url(#linearGradient-56)" opacity=".5"/><path d="M43.7 135.68l37.3.06c8.1-.33 16.14-1 24.1-2.3 11.25-1.82 21.8-5.15 32.24-9.7 10.46-4.54 20.75-9.47 31.2-14.03 10.02-4.36 20-8.54 30.86-10.3 2.8-.43 5.6-.77 8.4-1.03-3.1-3.84-6.54-7.4-10.28-10.64-10.7.13-21.4 1.1-31.63 4.43-9.83 3.2-18.4 9.7-28.5 12.03-5.36 1.22-10.92 1.22-16.4 1.46-5.75.25-11.53.44-17.3.52-9.7.13-19.35-.18-29.02-.6-1.18 1.83-2.3 3.73-3.33 5.66H54.02c-2.25 0-4.07 1.83-4.07 4.08s1.82 4.07 4.07 4.07h44.52c2.25 0 4.07 1.8 4.07 4.06 0 2.25-1.8 4.07-4.06 4.07H43.7c-2.24 0-4.07 1.83-4.07 4.07 0 2.25 1.83 4.08 4.08 4.08z" id="Shape" fill="url(#linearGradient-57)" opacity=".5"/><path d="M56.74 112.87h17.32c1.04-1.94 2.15-3.83 3.34-5.67 9.67.43 19.32.74 29 .6 5.8-.07 11.56-.26 17.33-.5 5.46-.25 11.03-.25 16.38-1.48 10.12-2.32 18.7-8.82 28.5-12.03 9.96-3.26 20.34-4.25 30.76-4.42-.6-.56-1.22-1.1-1.84-1.64-10.7.12-21.4 1.08-31.63 4.43-9.83 3.2-18.4 9.7-28.5 12.02-5.36 1.22-10.92 1.22-16.4 1.46-5.75.25-11.53.44-17.3.52-9.7.13-19.35-.18-29.02-.6-1.18 1.83-2.3 3.73-3.33 5.66H54.02c-2.25 0-4.07 1.83-4.07 4.08 0 2.05 1.52 3.75 3.5 4.02-.5-.67-.8-1.5-.8-2.4.02-2.24 1.84-4.07 4.1-4.07z" id="Shape" fill="url(#linearGradient-58)" opacity=".5"/><path d="M113.6 168.75c10.37-.74 20.68-2.16 30.76-4.74 10.9-2.77 21.53-6.57 31.87-11 10.24-4.35 20.5-9.1 30.18-14.58 5.7-3.24 11.1-7 16.62-10.48-.64-2.32-1.38-4.6-2.22-6.82-6.35.2-12.7.55-19 1.45-9.66 1.4-18.58 4.42-27.54 8.2-9.7 4.1-19.23 8.58-28.83 12.9-9.3 4.2-18.6 8.4-28.5 10.88-17.9 4.48-36.35 4.94-54.7 4.88.34 2.98.85 5.9 1.5 8.8 16.6 1.23 33.28 1.7 49.87.52z" id="Shape" fill="url(#linearGradient-59)"/><path d="M118.36 156.72c9.93-2.5 19.22-6.67 28.52-10.86 9.6-4.33 19.13-8.82 28.83-12.9 8.97-3.8 17.9-6.83 27.55-8.2 6-.87 12.08-1.22 18.16-1.44-.24-.73-.5-1.47-.78-2.2-6.35.2-12.7.56-19 1.46-9.66 1.38-18.58 4.42-27.54 8.2-9.7 4.1-19.23 8.58-28.83 12.9-9.3 4.2-18.6 8.38-28.52 10.88-17.87 4.47-36.33 4.93-54.7 4.88.36 2.98.86 5.9 1.52 8.78l1.18.08c-.44-2.2-.8-4.43-1.06-6.7 18.36.06 36.82-.4 54.7-4.88z" id="Shape" fill="url(#linearGradient-60)"/><path d="M126.52 230.27c7.8-3.2 15.2-7.25 22.02-12.34 15.52-11.6 26.48-28.28 42.47-39.28 10.48-7.2 23.62-10.5 34.22-17.42.5-3.7.78-7.46.78-11.3v-.3c-7.92 4.75-15.4 10.2-23.62 14.47-9.98 5.18-20.13 10.06-30.56 14.27-10.37 4.2-21.02 7.82-31.96 10.24-10.08 2.24-20.36 3.43-30.67 3.95-11.83.6-23.76.55-35.65-.05 11.54 19 30.56 32.96 52.97 37.77z" id="Shape" fill="url(#linearGradient-61)" opacity=".5"/><path d="M78.44 194.67c11.9.6 23.82.64 35.64.05 10.3-.52 20.6-1.7 30.67-3.94 10.94-2.42 21.6-6.05 31.96-10.24 10.44-4.2 20.6-9.1 30.57-14.27 6.46-3.36 12.46-7.44 18.58-11.34.1-1.65.15-3.32.15-5v-.3c-7.92 4.75-15.4 10.2-23.62 14.46-9.98 5.18-20.13 10.06-30.56 14.27-10.37 4.2-21.02 7.82-31.95 10.24-10.1 2.24-20.37 3.42-30.68 3.95-11.82.6-23.76.55-35.65-.05 9.13 15.03 22.94 26.9 39.4 33.6-14.3-6.94-26.3-17.9-34.5-31.43z" id="Shape" fill="url(#linearGradient-62)" opacity=".5"/><path d="M201.6 196.3c-6.76 3.1-12.77 7.06-18.35 11.97-5.48 4.82-10.47 10.15-15.5 15.44-2.1 2.2-4.2 4.4-6.35 6.5 23.24-5.05 42.8-19.94 54.12-40.1-4.6 2.2-9.38 4.13-13.93 6.2z" id="Shape" fill="url(#linearGradient-63)"/><path d="M184.34 209.35c5.57-4.9 11.6-8.87 18.34-11.96 3.53-1.62 7.2-3.15 10.82-4.78.5-.83 1-1.67 1.48-2.52-4.62 2.2-9.4 4.13-13.93 6.2-6.75 3.1-12.77 7.06-18.34 11.97-5.47 4.82-10.46 10.15-15.5 15.44-2.08 2.2-4.2 4.38-6.34 6.5 1.2-.25 2.4-.54 3.56-.85 1.5-1.5 2.96-3.02 4.42-4.56 5.03-5.3 10.02-10.62 15.5-15.45z" id="Shape" fill="url(#linearGradient-64)"/><path d="M185.7 79.24c-3.97 1.64-8.06 3.05-12.27 3.98-10.7 2.38-21.7 1.63-32.57 2.17-11.74.58-23.44 1.7-35.14 2.76-5.8.52-11.6 1.17-17.43 1.34h-.12c-6.76 6.23-12.47 13.57-16.83 21.74H54.02c-2.07 0-3.78 1.55-4.03 3.55 20.3 2.7 40.76 4.4 61.26 4.7 5.5.1 11 .2 16.45-.64 5.16-.8 10.2-2.08 15.13-3.74 10.02-3.37 19.56-7.95 29.3-12.04 9.94-4.2 20.02-7.3 30.8-8.35l1.62-.15c-5.47-6-11.82-11.17-18.84-15.34z" id="Shape" fill="url(#linearGradient-65)" opacity=".5"/><path d="M55.65 112.87h17.33c4.36-8.17 10.07-15.5 16.83-21.73h.12c5.82-.18 11.63-.83 17.43-1.36 11.7-1.06 23.4-2.17 35.14-2.76 10.86-.54 21.86.2 32.56-2.17 4.2-.93 8.3-2.34 12.28-3.98 2.15 1.28 4.24 2.65 6.25 4.1-2.7-2.07-5.5-4-8.43-5.73-4 1.64-8.07 3.05-12.28 4-10.7 2.36-21.7 1.6-32.58 2.15-11.74.58-23.44 1.7-35.14 2.76-5.8.52-11.62 1.17-17.43 1.34h-.1c-6.77 6.23-12.48 13.58-16.85 21.74H53.48c-2.07 0-3.78 1.55-4.04 3.56.86.1 1.72.22 2.57.33.68-1.34 2.06-2.26 3.65-2.26z" id="Shape" fill="url(#linearGradient-66)" opacity=".5"/><path d="M203.54 118.2c-10.34 1-20.1 3.7-29.68 7.67-9.36 3.9-18.5 8.33-28.06 11.75-9.62 3.44-19.33 5.53-29.58 5.47-5.22-.04-10.43-.16-15.64-.36-.74.72-1.74 1.17-2.86 1.17H61.9c-.15 2-.23 4-.23 6.04 0 6.23.7 12.3 2.02 18.14 8.53.5 17.02 1.66 25.5 2.93 10.78 1.62 21.6 3.38 32.5 4 10.6.58 21.8.5 32.04-2.54 18.24-5.4 32.2-19.03 48.5-28.18 6.7-3.77 14.97-7.18 21.87-11.9-1.1-5.16-2.72-10.13-4.76-14.87-5.27.03-10.54.18-15.8.7z" id="Shape" fill="url(#linearGradient-67)" opacity=".5"/><path d="M62.44 145h35.83c1.1 0 2.12-.45 2.85-1.17 5.2.2 10.43.32 15.65.35 10.24.05 19.95-2.04 29.57-5.48 9.56-3.42 18.7-7.85 28.07-11.74 9.6-3.98 19.35-6.66 29.7-7.68 5.1-.5 10.24-.66 15.38-.7l-.68-1.62c-5.27.02-10.55.17-15.8.7-10.34 1-20.1 3.7-29.68 7.67-9.36 3.9-18.5 8.32-28.06 11.74-9.62 3.44-19.33 5.53-29.58 5.48-5.22-.03-10.43-.15-15.65-.35-.73.72-1.74 1.17-2.85 1.17H61.36c-.15 2-.23 4-.23 6.02 0 6.23.7 12.3 2 18.13l.77.05c-1.1-5.35-1.68-10.88-1.68-16.56 0-2.02.07-4.03.22-6.03z" id="Shape" fill="url(#linearGradient-68)" opacity=".5"/><path d="M224.16 155.72c-6.43 4.5-13.58 7.5-20.42 11.25-8.35 4.57-16 10.23-23.87 15.54-7.66 5.2-15.66 10.18-24.53 13-10.12 3.2-21.12 3.6-31.65 3.1-16.88-.8-33.46-4.4-50.2-6.2 14.38 23.8 40.5 39.7 70.34 39.7 43.86 0 79.7-34.36 82.04-77.63-.57.43-1.14.85-1.72 1.25z" id="Shape" fill="url(#linearGradient-69)" opacity=".5"/><path d="M76.02 194.57c16.75 1.8 33.33 5.42 50.2 6.22 10.53.48 21.54.08 31.65-3.14 8.87-2.8 16.88-7.8 24.54-12.97 7.87-5.33 15.52-11 23.87-15.56 6.36-3.48 13-6.34 19.07-10.33.15-1.43.27-2.87.35-4.33-.57.43-1.14.85-1.72 1.25-6.43 4.5-13.6 7.5-20.43 11.25-8.34 4.57-16 10.23-23.86 15.54-7.67 5.2-15.67 10.18-24.54 13-10.12 3.2-21.13 3.6-31.66 3.1-16.86-.8-33.44-4.4-50.2-6.2 5.33 8.8 12.27 16.53 20.4 22.77-6.97-5.83-12.96-12.8-17.68-20.6z" id="Shape" fill="url(#linearGradient-70)" opacity=".5"/><path d="M61.66 168.95c-4.1 1.87-8.1 4.1-11.9 6.54-2.8 1.8-5.54 3.82-7.88 6.24-1.38 1.42-3.04 3.34-3.23 5.42-.3 3.38 1.7 5.94 4.58 7.35 4.26 2.08 9.32 2.33 13.95 2.36 7.1.03 14.2-.8 21.22-1.9 19.1-2.96 37.93-7.97 56.44-13.58 20.8-6.3 41.3-13.6 61.4-21.92 17.07-7.06 34.08-14.78 49.83-24.58 5.44-3.38 10.8-7.06 15.44-11.54 2.8-2.7 5.9-6.16 6.48-10.2.5-3.55-2-7.46-5.45-8.28-6.53-1.55-13.65-.14-20.03 1.5-6.35 1.66-12.55 4-18.57 6.64-1.8.78-3.6 1.6-5.34 2.5-1.3.64-.13 1.65.9 1.13 9.47-4.8 19.93-8.78 30.43-10.4 3.37-.52 6.8-.72 10.2-.23 1.57.22 2.58.64 3.7 1.74 1.1 1.08 1.84 2.36 2.06 3.9.5 3.53-2.22 7-4.44 9.42-4.06 4.47-9.1 8-14.12 11.28-15.2 9.9-31.9 17.5-48.5 24.52-20.04 8.45-40.52 15.82-61.26 22.23-18.7 5.77-37.7 10.92-57 14.1-7.16 1.18-14.4 2.1-21.65 2.2-4.62.06-9.68-.1-13.98-2.02-2.54-1.14-4.36-3.28-4.2-6.2.1-1.94 1.6-3.57 2.86-4.9 2.3-2.4 5.1-4.35 7.88-6.13 3.53-2.28 7.26-4.3 11.08-6.04 1.3-.6.13-1.62-.9-1.15z" opacity=".4" id="Shape" fill="#682280"/><path d="M62.3 167.07c-4.1 1.82-8.06 4-11.85 6.4-2.8 1.75-5.52 3.73-7.86 6.08-1.4 1.4-3.03 3.27-3.22 5.3-.3 3.3 1.7 5.8 4.56 7.18 4.24 2.02 9.3 2.27 13.9 2.3 7.1.02 14.17-.8 21.16-1.86 19.05-2.9 37.8-7.8 56.26-13.27 20.72-6.15 41.18-13.28 61.2-21.4 17.02-6.9 33.98-14.44 49.68-24 5.43-3.3 10.77-6.9 15.4-11.28 2.8-2.64 5.86-6.02 6.44-9.97.5-3.45-2-7.28-5.43-8.07-6.5-1.52-13.6-.14-19.96 1.47-6.35 1.6-12.53 3.9-18.53 6.47-1.8.77-3.58 1.56-5.33 2.43-1.27.64-.12 1.63.9 1.12 9.46-4.7 19.88-8.57 30.35-10.16 3.34-.5 6.77-.7 10.15-.22 1.57.23 2.58.64 3.7 1.7 1.08 1.05 1.83 2.32 2.05 3.82.5 3.45-2.2 6.82-4.42 9.2-4.05 4.36-9.08 7.82-14.08 11-15.14 9.68-31.8 17.1-48.36 23.96-19.96 8.25-40.38 15.44-61.06 21.7-18.63 5.65-37.58 10.68-56.82 13.8-7.13 1.14-14.35 2.04-21.58 2.14-4.6.06-9.65-.1-13.93-1.98-2.53-1.1-4.35-3.2-4.2-6.07.12-1.87 1.62-3.47 2.86-4.76 2.3-2.38 5.1-4.26 7.86-6 3.52-2.23 7.24-4.22 11.04-5.9 1.3-.6.14-1.6-.9-1.13z" id="Shape" fill="url(#linearGradient-71)"/><path d="M61.35 164.7c-4.1 1.84-8.05 4.03-11.83 6.44-2.8 1.78-5.5 3.77-7.84 6.14-1.37 1.4-3.02 3.3-3.2 5.33-.3 3.34 1.68 5.85 4.55 7.23 4.23 2.05 9.26 2.3 13.87 2.32 7.06.03 14.12-.8 21.1-1.87 19-2.9 37.72-7.84 56.12-13.36 20.68-6.2 41.1-13.38 61.07-21.56 16.96-6.94 33.88-14.54 49.54-24.17 5.4-3.34 10.75-6.96 15.36-11.37 2.8-2.66 5.85-6.06 6.43-10.04.5-3.48-2-7.34-5.4-8.14-6.5-1.52-13.6-.14-19.93 1.5-6.33 1.6-12.5 3.9-18.48 6.5-1.78.78-3.56 1.58-5.3 2.45-1.28.65-.13 1.65.9 1.14 9.42-4.74 19.82-8.64 30.26-10.23 3.35-.5 6.77-.7 10.14-.22 1.57.22 2.57.63 3.68 1.7 1.1 1.07 1.84 2.34 2.06 3.85.5 3.47-2.2 6.87-4.4 9.27-4.05 4.4-9.07 7.87-14.06 11.08-15.1 9.74-31.7 17.22-48.24 24.12-19.9 8.32-40.3 15.56-60.9 21.87-18.6 5.68-37.5 10.75-56.7 13.88-7.1 1.16-14.32 2.07-21.53 2.16-4.6.08-9.63-.08-13.9-1.98-2.52-1.1-4.34-3.22-4.18-6.1.1-1.9 1.6-3.5 2.85-4.8 2.27-2.4 5.06-4.3 7.82-6.05 3.5-2.23 7.23-4.23 11.02-5.94 1.3-.58.14-1.6-.9-1.12z" id="Shape" fill="url(#linearGradient-72)"/></g></g></g></g></g></g></g></g></g></svg>